<?xml version="1.0" encoding="UTF-8" standalone="no"?>
<!DOCTYPE svg PUBLIC "-//W3C//DTD SVG 1.1//EN" "http://www.w3.org/Graphics/SVG/1.1/DTD/svg11.dtd">
<svg width="100%" height="100%" viewBox="0 0 512 512" version="1.1" xmlns="http://www.w3.org/2000/svg" xmlns:xlink="http://www.w3.org/1999/xlink" xml:space="preserve" xmlns:serif="http://www.serif.com/" style="fill-rule:evenodd;clip-rule:evenodd;stroke-linejoin:round;stroke-miterlimit:2;">
    <rect id="Artboard1" x="0" y="0" width="512" height="512"/>
    <g id="Artboard11" serif:id="Artboard1">
        <g transform="matrix(5.9551,0,0,5.9551,-55.6593,-33.0736)">
            <path d="M68.128,32.749C77.902,42.524 77.901,58.394 68.127,68.168C58.353,77.942 42.483,77.942 32.709,68.168C22.935,58.394 22.935,42.524 32.709,32.749C42.483,22.976 58.354,22.976 68.128,32.749ZM55.723,27.76C48.139,25.997 39.841,28.069 33.935,33.975C24.837,43.073 24.837,57.845 33.935,66.942C37.126,70.134 41.016,72.206 45.114,73.158L63.464,54.807C64.618,53.654 65.265,52.09 65.265,50.459C65.265,48.828 64.617,47.263 63.464,46.111L63.464,46.11C62.31,44.957 60.747,44.309 59.115,44.309C57.484,44.309 55.92,44.957 54.767,46.11L46.07,54.807C44.916,55.961 43.352,56.609 41.721,56.609C40.09,56.609 38.526,55.961 37.373,54.807L37.373,54.807C36.219,53.654 35.571,52.09 35.571,50.459C35.571,48.828 36.219,47.264 37.373,46.11L55.723,27.76ZM75.458,21.586C77.573,21.586 79.291,23.304 79.291,25.419C79.291,27.535 77.574,29.252 75.458,29.252C73.343,29.252 71.625,27.535 71.625,25.419C71.625,23.304 73.343,21.586 75.458,21.586ZM77.188,23.69C76.745,23.247 76.133,22.973 75.458,22.973C74.108,22.973 73.012,24.069 73.012,25.419C73.012,26.094 73.286,26.706 73.728,27.149L77.188,23.69Z" style="fill:white;"/>
        </g>
    </g>
</svg>
