<svg width="100" height="100" viewBox="0 0 100 100" fill="none" xmlns="http://www.w3.org/2000/svg">
<path d="M50 30C38.961 30 30 38.961 30 50C30 61.039 38.961 70 50 70C61.039 70 70 61.039 70 50C70 38.961 61.039 30 50 30ZM58.0295 51.9395H51.9395V58.0295C51.9395 59.1037 51.0742 59.9689 50 59.9689C48.9258 59.9689 48.0606 59.1037 48.0606 58.0295V51.9395H41.9706C40.8964 51.9395 40.0311 51.0742 40.0311 50C40.0311 48.9258 40.8964 48.0606 41.9706 48.0606H48.0606V41.9706C48.0606 40.8964 48.9258 40.0311 50 40.0311C51.0742 40.0311 51.9395 40.8964 51.9395 41.9706V48.0606H58.0295C59.1037 48.0606 59.9689 48.9258 59.9689 50C59.9709 51.0742 59.0998 51.9395 58.0295 51.9395Z" fill="white"/>
</svg>
