<?xml version="1.0" encoding="UTF-8" standalone="no"?>
<!DOCTYPE svg PUBLIC "-//W3C//DTD SVG 1.1//EN" "http://www.w3.org/Graphics/SVG/1.1/DTD/svg11.dtd">
<svg class="icon" width="100%" height="100%" viewBox="0 0 929 932" version="1.1" xmlns="http://www.w3.org/2000/svg" xmlns:xlink="http://www.w3.org/1999/xlink" xml:space="preserve" xmlns:serif="http://www.serif.com/" style="fill-rule:evenodd;clip-rule:evenodd;stroke-linejoin:round;stroke-miterlimit:2;">
    <path d="M424.717,875.13L37.061,499.695C45.148,497.55 52.792,493.298 59.128,486.938C63.369,482.68 66.674,477.835 69.041,472.663L393.673,787.061L262.551,469.972L70.095,470.181C77.069,452.434 73.413,431.438 59.128,417.098C46.574,404.495 28.88,400.167 12.795,404.113L111.776,186.462L133.238,179.762L135.951,233.956L56.128,409.479L211.475,346.458L152.976,204.992L160.585,183.826L192.056,205.25L180.711,168.908L251.054,165.386L184.775,141.561L194.415,127.399L625.609,127.399L714.667,158.879L688.366,197.961L511.429,269.74L655.295,327.365L708.529,199.135L737.85,189.81L740.165,231.602L693.978,342.86L852.328,406.287C851.328,407.167 850.351,408.086 849.397,409.043C833.146,425.356 828.073,448.668 834.177,469.352L641.379,469.561L504.886,798.349L838.544,480.181C841.32,485.512 844.938,490.516 849.397,494.992C855.3,500.919 862.126,505.361 869.411,508.321L491.766,868.434L489.12,868.203L502.132,831.362L469.045,852.142L455.328,809.052L596.244,469.61L493.963,469.721C502.059,457.191 502.973,441.333 496.704,428.052L613.549,427.925L639.319,365.851L455.756,292.325L266.009,369.3L290.397,428.275L419.868,428.135C413.629,441.426 414.572,457.283 422.697,469.799L307.619,469.923L445.447,803.227L440.912,855.267L404.071,842.255L424.717,875.13ZM648.754,169.066L260.09,169.066L455.657,247.4L648.754,169.066ZM658.684,427.876L793.802,427.729L678.001,381.345L658.684,427.876ZM120.177,428.46L245.329,428.324L227.398,384.964L120.177,428.46ZM190.191,185.953L250.087,330.795L399.984,269.985L190.191,185.953ZM810.571,217.116L897.112,391.493C882.896,390.319 868.344,394.173 856.334,403.053L768.168,225.402L778.682,195.656L810.571,217.116ZM7.248,434.439C16.761,424.889 32.207,424.889 41.719,434.439C51.384,444.141 51.384,459.895 41.719,469.597C32.207,479.146 16.761,479.146 7.248,469.597C-2.416,459.895 -2.416,444.141 7.248,434.439ZM445.706,433.461C452.66,426.48 463.951,426.48 470.905,433.461C478.03,440.614 478.03,452.229 470.905,459.382C463.951,466.363 452.66,466.363 445.706,459.382C438.58,452.229 438.58,440.614 445.706,433.461ZM445.706,5.236C452.66,-1.745 463.951,-1.745 470.905,5.236C478.03,12.389 478.03,24.004 470.905,31.157C463.951,38.138 452.66,38.138 445.706,31.157C438.58,24.004 438.58,12.389 445.706,5.236ZM866.805,426.384C880.78,412.355 903.473,412.355 917.448,426.384C931.541,440.532 931.541,463.504 917.448,477.651C903.473,491.681 880.78,491.681 866.805,477.651C852.712,463.504 852.712,440.532 866.805,426.384ZM151.547,740.557C161.503,740.557 169.476,748.781 169.476,758.776C169.476,768.77 161.503,776.995 151.547,776.995C141.591,776.995 133.619,768.77 133.619,758.776C133.619,748.781 141.591,740.557 151.547,740.557ZM765.063,740.557C775.019,740.557 782.992,748.781 782.992,758.776C782.992,768.77 775.019,776.995 765.063,776.995C755.107,776.995 747.135,768.77 747.135,758.776C747.135,748.781 755.107,740.557 765.063,740.557ZM157.897,107.872L159.008,130.056C159.085,131.606 159.875,133.032 161.148,133.92C162.42,134.807 164.032,135.056 165.513,134.594L178.688,130.481L170.921,141.891C170.048,143.173 169.818,144.788 170.297,146.263C170.776,147.739 171.911,148.91 173.371,149.435L194.274,156.948L172.09,158.059C170.54,158.136 169.114,158.927 168.226,160.199C167.338,161.472 167.089,163.083 167.552,164.564L171.665,177.74L160.255,169.973C158.973,169.1 157.358,168.869 155.883,169.348C154.407,169.828 153.236,170.963 152.711,172.423L145.198,193.325L144.087,171.141C144.009,169.592 143.219,168.165 141.947,167.277C140.674,166.39 139.063,166.141 137.582,166.603L124.406,170.716L132.173,159.307C133.046,158.024 133.277,156.41 132.797,154.934C132.318,153.458 131.183,152.288 129.723,151.763L108.821,144.249L131.005,143.138C132.554,143.061 133.981,142.271 134.868,140.998C135.756,139.726 136.005,138.114 135.543,136.633L131.43,123.458L142.839,131.224C144.122,132.098 145.736,132.328 147.212,131.849C148.688,131.37 149.858,130.235 150.383,128.774L157.897,107.872ZM778.328,52.613L781.473,109.389C781.559,110.938 782.357,112.36 783.634,113.241C784.911,114.122 786.524,114.362 788.003,113.892L820.854,103.444L801.608,132.044C800.742,133.331 800.52,134.946 801.007,136.419C801.494,137.893 802.635,139.057 804.098,139.574L857.71,158.525L800.934,161.67C799.385,161.756 797.963,162.554 797.082,163.831C796.201,165.108 795.961,166.721 796.431,168.199L806.879,201.051L778.279,181.804C776.992,180.938 775.376,180.716 773.903,181.203C772.43,181.69 771.265,182.832 770.748,184.294L751.798,237.906L748.653,181.131C748.567,179.582 747.769,178.159 746.492,177.278C745.215,176.398 743.602,176.157 742.123,176.628L709.272,187.075L728.519,158.476C729.385,157.189 729.607,155.573 729.12,154.1C728.633,152.627 727.491,151.462 726.028,150.945L672.417,131.995L729.192,128.849C730.741,128.764 732.164,127.966 733.044,126.689C733.925,125.411 734.166,123.798 733.695,122.32L723.247,89.469L751.847,108.715C753.134,109.581 754.75,109.803 756.223,109.316C757.696,108.829 758.861,107.688 759.378,106.225L778.328,52.613ZM453.51,840.484L460.756,863.247C461.226,864.725 462.355,865.903 463.812,866.436C465.269,866.969 466.89,866.799 468.204,865.974L480.74,858.101L475.81,872.059C475.293,873.522 475.483,875.141 476.323,876.446C477.163,877.75 478.559,878.592 480.105,878.727L503.903,880.801L481.14,888.047C479.662,888.517 478.484,889.645 477.951,891.102C477.418,892.559 477.588,894.181 478.413,895.495L486.286,908.03L472.328,903.101C470.865,902.584 469.246,902.773 467.941,903.614C466.637,904.454 465.795,905.85 465.66,907.396L463.586,931.193L456.34,908.431C455.87,906.953 454.742,905.775 453.285,905.242C451.828,904.708 450.206,904.879 448.892,905.704L436.357,913.577L441.286,899.619C441.803,898.156 441.614,896.537 440.773,895.232C439.933,893.928 438.537,893.085 436.991,892.951L413.194,890.877L435.956,883.631C437.434,883.161 438.612,882.032 439.145,880.575C439.679,879.118 439.508,877.497 438.683,876.183L430.81,863.647L444.768,868.577C446.231,869.094 447.85,868.904 449.155,868.064C450.459,867.224 451.302,865.828 451.436,864.282L453.51,840.484Z"/>
</svg>
