<?xml version="1.0" encoding="UTF-8" standalone="no"?>
<!DOCTYPE svg PUBLIC "-//W3C//DTD SVG 1.1//EN" "http://www.w3.org/Graphics/SVG/1.1/DTD/svg11.dtd">
<svg class="icon" width="100%" height="100%" viewBox="0 0 992 938" version="1.1" xmlns="http://www.w3.org/2000/svg" xmlns:xlink="http://www.w3.org/1999/xlink" xml:space="preserve" xmlns:serif="http://www.serif.com/" style="fill-rule:evenodd;clip-rule:evenodd;stroke-linejoin:round;stroke-miterlimit:2;">
    <path d="M111.233,353.725L177.271,197.07L196.379,191.105L199.418,251.799L131.209,413.604L114.839,418.81L111.233,353.725ZM232.929,131.386L468.217,29.912C468.31,43.5 473.516,57.059 483.834,67.417C484.1,67.683 484.367,67.947 484.637,68.207L269.915,160.812L247.916,152.904L269.34,121.432L232.998,132.777L232.929,131.386ZM574.675,28.951L800.306,122.485C799.24,123.37 798.206,124.313 797.208,125.315C787.48,135.08 783.254,148.29 784.528,161.049L558.942,67.534L559.06,67.417C569.621,56.815 574.826,42.859 574.675,28.951ZM862.29,184.451L952.685,402.685C938.82,403.276 925.119,408.629 914.238,418.744L823.861,200.555C836.482,201.808 849.543,197.586 859.202,187.889C860.301,186.785 861.331,185.637 862.29,184.451ZM952.685,524.036L860.753,745.978C853.395,735.933 841.563,729.401 828.205,729.401C826.214,729.401 824.257,729.546 822.344,729.826L914.238,507.976C925.119,518.091 938.82,523.444 952.685,524.036ZM803.982,802.712L607.106,884.325L552.262,879.546L559.54,858.938L788.211,764.144C787.926,766.095 787.778,768.089 787.778,770.118C787.778,783.428 794.14,795.276 803.982,802.712ZM461.911,894.987L259.855,811.359C269.157,801.081 275.034,787.621 275.673,772.811L492.094,862.385L467.213,853.597L487.992,886.685L461.911,894.987ZM173.425,724.937L94.203,533.679L101.245,513.756L142.569,541.566L211.861,708.85C197.067,709.529 183.643,715.509 173.425,724.937ZM508.418,444.375C515.609,437.157 527.285,437.157 534.476,444.375C541.837,451.765 541.837,463.763 534.476,471.153C527.285,478.371 515.609,478.371 508.418,471.153C501.057,463.763 501.057,451.765 508.418,444.375ZM500.813,8.574C512.201,-2.858 530.693,-2.858 542.081,8.574C553.607,20.145 553.607,38.933 542.081,50.503C530.693,61.936 512.201,61.936 500.813,50.503C489.287,38.933 489.287,20.145 500.813,8.574ZM929.517,437.299C943.729,423.031 966.806,423.031 981.019,437.299C995.347,451.682 995.347,475.038 981.019,489.422C966.806,503.689 943.729,503.689 929.517,489.422C915.189,475.038 915.189,451.682 929.517,437.299ZM814.186,142.228C821.923,134.461 834.486,134.461 842.223,142.228C850.125,150.161 850.125,163.043 842.223,170.976C834.486,178.743 821.923,178.743 814.186,170.976C806.284,163.043 806.284,150.161 814.186,142.228ZM214.689,732.751C235.193,732.751 251.765,749.535 251.765,770.118C251.765,790.701 235.193,807.485 214.689,807.485C194.185,807.485 177.612,790.701 177.612,770.118C177.612,749.535 194.185,732.751 214.689,732.751ZM828.205,753.366C837.353,753.366 844.666,760.935 844.666,770.118C844.666,779.301 837.353,786.87 828.205,786.87C819.057,786.87 811.744,779.301 811.744,770.118C811.744,760.935 819.057,753.366 828.205,753.366ZM220.293,124.232L221.155,141.448C221.248,143.305 222.195,145.015 223.72,146.079C225.245,147.143 227.176,147.441 228.951,146.887L239.399,143.625L233.24,152.673C232.194,154.21 231.917,156.145 232.492,157.913C233.066,159.682 234.426,161.085 236.176,161.714L252.398,167.545L235.181,168.407C233.324,168.5 231.615,169.447 230.551,170.972C229.487,172.497 229.189,174.429 229.743,176.203L233.005,186.651L223.957,180.492C222.42,179.446 220.485,179.17 218.717,179.744C216.948,180.318 215.545,181.679 214.916,183.429L209.085,199.65L208.223,182.434C208.13,180.577 207.183,178.867 205.658,177.803C204.133,176.74 202.201,176.441 200.426,176.995L189.979,180.257L196.138,171.209C197.184,169.672 197.46,167.738 196.886,165.969C196.311,164.201 194.951,162.797 193.201,162.168L176.979,156.337L194.196,155.475C196.053,155.382 197.763,154.435 198.826,152.91C199.89,151.385 200.189,149.454 199.634,147.679L196.373,137.231L205.421,143.39C206.958,144.436 208.892,144.712 210.661,144.138C212.429,143.564 213.833,142.203 214.462,140.454L220.293,124.232ZM100.172,375.735L103.042,427.544C103.145,429.401 104.101,431.105 105.631,432.161C107.162,433.217 109.095,433.505 110.867,432.941L140.995,423.359L123.344,449.588C122.306,451.131 122.04,453.067 122.624,454.832C123.208,456.598 124.575,457.994 126.328,458.613L175.251,475.906L123.441,478.776C121.585,478.879 119.88,479.835 118.825,481.366C117.769,482.897 117.481,484.83 118.045,486.602L127.627,516.73L101.397,499.079C99.855,498.041 97.919,497.775 96.153,498.358C94.388,498.942 92.992,500.31 92.372,502.063L75.079,550.986L72.209,499.176C72.106,497.32 71.15,495.615 69.62,494.559C68.089,493.504 66.156,493.216 64.384,493.779L34.255,503.361L51.907,477.132C52.945,475.589 53.211,473.653 52.627,471.888C52.043,470.122 50.676,468.726 48.923,468.107L0,450.814L51.809,447.944C53.666,447.841 55.37,446.885 56.426,445.354C57.482,443.824 57.77,441.891 57.206,440.119L47.624,409.99L73.854,427.641C75.396,428.68 77.332,428.946 79.098,428.362C80.863,427.778 82.259,426.41 82.879,424.657L100.172,375.735ZM517.212,856.868L522.949,874.891C523.513,876.663 524.865,878.074 526.611,878.713C528.357,879.353 530.301,879.148 531.875,878.159L541.991,871.806L538.013,883.07C537.394,884.823 537.621,886.764 538.627,888.327C539.634,889.89 541.308,890.9 543.16,891.061L562.003,892.703L543.98,898.441C542.208,899.005 540.797,900.357 540.158,902.103C539.518,903.849 539.723,905.792 540.712,907.367L547.065,917.483L535.801,913.505C534.048,912.885 532.107,913.112 530.544,914.119C528.981,915.126 527.971,916.799 527.81,918.652L526.168,937.495L520.43,919.471C519.866,917.7 518.514,916.289 516.768,915.649C515.022,915.01 513.079,915.215 511.504,916.204L501.388,922.556L505.366,911.293C505.985,909.54 505.759,907.599 504.752,906.036C503.745,904.472 502.072,903.463 500.219,903.302L481.376,901.659L499.399,895.922C501.171,895.358 502.582,894.006 503.222,892.26C503.861,890.514 503.656,888.57 502.667,886.996L496.315,876.88L507.578,880.858C509.331,881.477 511.272,881.25 512.835,880.244C514.399,879.237 515.408,877.563 515.569,875.711L517.212,856.868Z"/>
</svg>
