<?xml version="1.0" encoding="UTF-8" standalone="no"?>
<!DOCTYPE svg PUBLIC "-//W3C//DTD SVG 1.1//EN" "http://www.w3.org/Graphics/SVG/1.1/DTD/svg11.dtd">
<svg class="icon" width="100%" height="100%" viewBox="0 0 931 940" version="1.1" xmlns="http://www.w3.org/2000/svg" xmlns:xlink="http://www.w3.org/1999/xlink" xml:space="preserve" xmlns:serif="http://www.serif.com/" style="fill-rule:evenodd;clip-rule:evenodd;stroke-linejoin:round;stroke-miterlimit:2;">
    <path d="M104.712,443.797L432.426,443.797C426.648,459.073 429.883,477.012 442.131,489.307C458.677,505.917 485.543,505.917 502.089,489.307C514.336,477.012 517.571,459.073 511.793,443.797L861.703,443.797C855.576,456.962 855.576,472.299 861.703,485.463L527.266,485.463L736.234,698.244L719.446,686.077L735.292,742.641L721.71,742.92L493.077,510.117L493.169,836.592C479.679,832.031 464.989,832.034 451.502,836.604L451.411,509.844L226.749,738.604C220.09,726.065 209.733,715.801 197.144,709.283L416.954,485.463L95.886,485.463L72.995,465.208L104.712,443.797ZM451.386,421.717L451.291,82.076C464.613,87.527 479.638,87.523 492.958,82.064L493.053,421.841C480.183,414.499 464.289,414.458 451.386,421.717ZM443.788,869.587C459.553,853.761 485.152,853.761 500.917,869.587C516.786,885.518 516.786,911.385 500.917,927.316C485.152,943.142 459.553,943.142 443.788,927.316C427.919,911.385 427.919,885.518 443.788,869.587ZM766.246,144.889C773.212,137.896 784.523,137.896 791.489,144.889C798.627,152.055 798.627,163.69 791.489,170.855C784.523,177.848 773.212,177.848 766.246,170.855C759.108,163.69 759.108,152.055 766.246,144.889ZM459.517,446.08C466.467,439.103 477.752,439.103 484.703,446.08C491.825,453.229 491.825,464.839 484.703,471.988C477.752,478.965 466.467,478.965 459.517,471.988C452.395,464.839 452.395,453.229 459.517,446.08ZM450.576,8.948C462.461,-2.983 481.759,-2.983 493.644,8.948C505.662,21.013 505.662,40.604 493.644,52.67C481.759,64.601 462.461,64.601 450.576,52.67C438.557,40.604 438.557,21.013 450.576,8.948ZM888.829,447.184C898.268,437.708 913.594,437.708 923.033,447.184C932.625,456.813 932.625,472.448 923.033,482.076C913.594,491.552 898.268,491.552 888.829,482.076C879.237,472.448 879.237,456.813 888.829,447.184ZM152.73,150.228C159.696,143.235 171.007,143.235 177.974,150.228C185.111,157.394 185.111,169.029 177.974,176.194C171.007,183.187 159.696,183.187 152.73,176.194C145.592,169.029 145.592,157.394 152.73,150.228ZM165.352,726.104C190.217,726.104 210.346,746.427 210.346,771.388C210.346,796.349 190.217,816.672 165.352,816.672C140.487,816.672 120.358,796.349 120.358,771.388C120.358,746.427 140.487,726.104 165.352,726.104ZM794.912,681.697L796.03,736.12C796.065,737.821 796.885,739.411 798.252,740.425C799.618,741.439 801.377,741.764 803.016,741.305L834.868,732.383L815.456,759.166C814.458,760.544 814.153,762.307 814.631,763.94C815.108,765.573 816.315,766.894 817.899,767.517L868.559,787.432L814.136,788.55C812.435,788.585 810.845,789.406 809.831,790.772C808.817,792.139 808.492,793.898 808.951,795.536L817.873,827.388L791.09,807.977C789.712,806.978 787.949,806.673 786.316,807.151C784.682,807.629 783.362,808.835 782.739,810.419L762.824,861.079L761.705,806.657C761.671,804.955 760.85,803.366 759.484,802.351C758.117,801.337 756.358,801.012 754.72,801.471L722.868,810.393L742.279,783.61C743.278,782.232 743.583,780.47 743.105,778.836C742.627,777.203 741.421,775.882 739.837,775.26L689.176,755.344L743.599,754.226C745.301,754.191 746.89,753.371 747.905,752.004C748.919,750.638 749.244,748.879 748.785,747.24L739.862,715.388L766.646,734.799C768.024,735.798 769.786,736.103 771.42,735.625C773.053,735.147 774.374,733.941 774.996,732.357L794.912,681.697ZM22.269,426.342L33.64,443.186C34.593,444.596 36.144,445.487 37.842,445.598C39.54,445.709 41.194,445.028 42.322,443.754L50.758,434.22L50.072,446.932C49.981,448.631 50.681,450.277 51.968,451.39C53.255,452.503 54.985,452.958 56.653,452.622L76.577,448.61L59.733,459.982C58.322,460.934 57.432,462.485 57.321,464.184C57.21,465.882 57.891,467.536 59.165,468.664L68.698,477.099L55.987,476.414C54.288,476.322 52.642,477.022 51.529,478.309C50.415,479.597 49.96,481.327 50.296,482.995L54.309,502.919L42.937,486.074C41.985,484.664 40.433,483.773 38.735,483.662C37.037,483.551 35.383,484.232 34.255,485.507L25.819,495.04L26.505,482.329C26.596,480.629 25.897,478.983 24.609,477.87C23.322,476.757 21.592,476.302 19.924,476.638L0,480.65L16.844,469.278C18.255,468.326 19.145,466.775 19.256,465.077C19.368,463.378 18.687,461.724 17.412,460.597L7.879,452.161L20.59,452.846C22.289,452.938 23.935,452.238 25.049,450.951C26.162,449.664 26.617,447.934 26.281,446.265L22.269,426.342Z"/>
</svg>
