<?xml version="1.0" encoding="UTF-8" standalone="no"?>
<!DOCTYPE svg PUBLIC "-//W3C//DTD SVG 1.1//EN" "http://www.w3.org/Graphics/SVG/1.1/DTD/svg11.dtd">
<svg width="100%" height="100%" viewBox="0 0 1443 1443" version="1.1" xmlns="http://www.w3.org/2000/svg" xmlns:xlink="http://www.w3.org/1999/xlink" xml:space="preserve" xmlns:serif="http://www.serif.com/" style="fill-rule:evenodd;clip-rule:evenodd;stroke-linejoin:round;stroke-miterlimit:2;">
    <g transform="matrix(1,0,0,1,-6266.36,-6992.11)">
        <g id="Artboard9" transform="matrix(2.8469,0,0,2.8469,-93928.3,3033.18)">
            <rect x="35194.3" y="1390.61" width="506.763" height="506.763" style="fill:none;"/>
            <g transform="matrix(1.46358,0,0,1.46358,-14864.8,967.664)">
                <path d="M34270.9,444.511L34295,391.614L34297,391.005L34297.3,398.571L34275.9,445.657C34274.3,444.907 34272.6,444.524 34270.9,444.511ZM34309.9,380.938L34422.2,380.938L34436.5,385.993L34432.7,391.661L34381,412.614L34423.6,429.668L34438.1,394.662L34442.1,393.416L34442.3,397.694L34428.2,431.528L34467.7,447.324C34466.6,448.68 34465.8,450.184 34465.3,451.758L34426.3,436.146L34419.3,453.056L34465,453.007C34464.6,454.646 34464.5,456.34 34464.7,458.007L34417.2,458.058L34379.3,549.456L34467.6,465.253C34468,465.742 34468.4,466.212 34468.8,466.66C34469.6,467.424 34470.4,468.085 34471.3,468.643L34383.8,552.018L34385.5,547.389L34377.5,552.376L34375.4,545.725L34411.8,458.064L34384.1,458.094C34384.7,456.48 34384.8,454.752 34384.4,453.094L34413.9,453.062L34421.7,434.287L34374.3,415.324L34325.5,435.123L34333,453.15L34365.5,453.115C34365.2,454.773 34365.3,456.501 34365.8,458.114L34335.1,458.148L34371.4,546.04L34370.8,553.126L34362.6,550.226L34276.4,466.779C34277.4,466.246 34278.3,465.562 34279.2,464.727C34279.6,464.339 34279.9,463.931 34280.2,463.506L34366.4,546.932L34329.7,458.153L34282.5,458.205C34282.7,456.543 34282.6,454.835 34282.2,453.205L34327.6,453.156L34320.9,437.003L34282.1,452.76C34281.6,451.178 34280.7,449.68 34279.6,448.382L34319,432.382L34302.9,393.56L34303.5,391.98L34309.3,395.949L34323.6,430.503L34367.7,412.644L34308.5,388.956L34308.3,388.4L34319.2,387.855L34374.3,409.933L34433.5,385.938L34320.7,385.938L34309.3,381.837L34309.9,380.938ZM34455.3,397.15L34477.5,441.856C34475.8,442.039 34474.2,442.515 34472.6,443.284L34450.5,398.674L34451.9,394.819L34455.3,397.15ZM34264.7,450.083C34268.1,446.653 34273.6,446.653 34277,450.083C34280.5,453.539 34280.5,459.153 34277,462.61C34273.6,466.039 34268.1,466.039 34264.7,462.61C34261.2,459.153 34261.2,453.539 34264.7,450.083ZM34370.3,450.231C34372.9,447.631 34377.1,447.631 34379.7,450.231C34382.3,452.865 34382.3,457.141 34379.7,459.775C34377.1,462.375 34372.9,462.375 34370.3,459.775C34367.7,457.141 34367.7,452.865 34370.3,450.231ZM34371.2,348.344C34373.3,346.238 34376.7,346.238 34378.8,348.344C34380.9,350.488 34380.9,353.97 34378.8,356.114C34376.7,358.22 34373.3,358.22 34371.2,356.114C34369,353.97 34369,350.488 34371.2,348.344ZM34471,448.149C34475.4,443.645 34482.7,443.645 34487.2,448.149C34491.7,452.673 34491.7,460.019 34487.2,464.543C34482.7,469.047 34475.4,469.047 34471,464.543C34466.4,460.019 34466.4,452.673 34471,448.149ZM34301.3,524.451C34304.4,524.451 34306.8,526.937 34306.8,529.968C34306.8,532.999 34304.4,535.485 34301.3,535.485C34298.3,535.485 34295.9,532.999 34295.9,529.968C34295.9,526.937 34298.3,524.451 34301.3,524.451ZM34448.6,524.451C34451.6,524.451 34454,526.937 34454,529.968C34454,532.999 34451.6,535.485 34448.6,535.485C34445.6,535.485 34443.1,532.999 34443.1,529.968C34443.1,526.937 34445.6,524.451 34448.6,524.451ZM34303.8,367.683L34304.3,379.015L34310.8,376.998L34307,382.593L34317.7,386.431L34306.3,386.999L34308.4,393.459L34302.8,389.651L34298.9,400.328L34298.4,388.996L34291.9,391.013L34295.7,385.418L34285,381.58L34296.4,381.013L34294.3,374.552L34299.9,378.36L34303.8,367.683ZM34452.6,354.417L34453.7,374.049L34464.9,370.494L34458.4,380.225L34476.9,386.777L34457.3,387.865L34460.8,399.042L34451.1,392.494L34444.5,411.032L34443.4,391.4L34432.3,394.955L34438.8,385.224L34420.3,378.671L34439.9,377.584L34436.4,366.406L34446.1,372.955L34452.6,354.417ZM34373.1,543.481L34376.7,554.676L34382.6,550.949L34380.3,557.557L34392,558.577L34380.8,562.14L34384.5,568.075L34377.9,565.741L34376.9,577.445L34373.3,566.251L34367.4,569.978L34369.7,563.37L34358,562.35L34369.2,558.786L34365.5,552.851L34372.1,555.185L34373.1,543.481Z"/>
            </g>
        </g>
    </g>
</svg>
