<svg class="icon" width="100" height="100" viewBox="20 20 60 60" fill="none" xmlns="http://www.w3.org/2000/svg">
<path d="M76.8767 40.6527L68.7394 27.2588L64.1483 40.6527H76.8767ZM63.522 42.5264L53.1589 72.8555L76.6693 42.5264H63.522ZM47.6634 72.8555L37.3004 42.5264H24.1554L47.6658 72.8555H47.6634ZM36.6747 40.653L32.0835 27.2591L23.8767 40.653H36.6747ZM61.5059 42.5267H39.3164L50.3764 74.9385L61.5059 42.5267ZM39.4566 40.653H61.3675L50.3788 26.5631L39.459 40.653H39.4566ZM62.6194 39.1949L67.1416 25.9385H52.3258L62.6194 39.1949ZM48.4293 25.9385H33.6135L38.2047 39.1949L48.4293 25.9385Z"/>
</svg>
