<svg class="icon" width="1200pt" height="1200pt" version="1.1" viewBox="0 0 1200 1200" xmlns="http://www.w3.org/2000/svg">
 <path d="m979.31 462.37c0-39.75-26.062-73.5-62.062-84.938 9.5625-10.5 16.5-23.062 20.25-37.125 6.1875-23.062 3-47.062-9-67.688-15.75-27.375-45.375-44.625-77.25-44.625-12.75 0-25.5 2.8125-37.125 8.25 16.688-42.188-1.125-91.312-42.562-112.31-12.562-6.375-26.438-9.5625-40.312-9.5625-15.375 0-30.188 3.9375-42.938 11.062-6-43.125-43.5-76.688-88.312-76.688s-82.312 33.562-88.312 76.688c-12.75-7.125-27.562-11.062-42.938-11.062-13.875 0-27.75 3.1875-40.312 9.5625-41.438 21-59.25 70.125-42.562 112.31-11.625-5.4375-24.375-8.25-37.125-8.25-31.875 0-61.5 17.25-77.25 44.625-12 20.625-15.188 44.625-9 67.688 3.75 14.062 10.688 26.625 20.25 37.125-36 11.438-62.062 45.188-62.062 84.938s26.062 73.5 62.062 84.938c-9.5625 10.312-16.5 23.062-20.25 37.125-6.1875 22.875-3 47.062 9 67.688 15.75 27.375 45.375 44.625 77.25 44.625 12.75 0 25.5-3 37.125-8.25-16.688 42.375 1.125 91.312 42.562 112.31 12.562 6.1875 26.438 9.5625 40.312 9.5625 15.375 0 30.188-3.9375 42.938-11.062 5.25 36.938 33.375 66.75 69.562 74.438v25.125h-21.188c-10.312 0-18.75 8.25-18.75 18.75v98.062c0 4.5 1.5 8.4375 4.125 11.625-0.1875 0.375-0.375 0.9375-0.5625 1.5l-18.375 61.125c-3 9.9375 2.4375 20.25 12.375 23.438 1.875 0.375 3.75 0.75 5.4375 0.75 8.0625 0 15.562-5.25 18-13.312l18.562-61.125c0.1875-0.5625 0.375-1.3125 0.375-1.875v-3.5625c0-0.75 0-1.5 0.1875-2.25 0.1875 0.75 0.1875 1.6875 0.1875 2.4375 0 1.125-0.1875 2.25-0.375 3.375v94.688c0 10.312 8.4375 18.75 18.75 18.75s18.75-8.4375 18.75-18.75v-94.688c-0.1875-1.125-0.375-2.25-0.375-3.375 0-0.75 0-1.6875 0.1875-2.4375 0.1875 0.75 0.1875 1.5 0.1875 2.25v3.5625c0 0.5625 0.1875 1.3125 0.375 1.875l18.562 61.125c2.4375 8.0625 9.9375 13.312 18 13.312 1.6875 0 3.5625-0.375 5.4375-0.75 9.9375-3.1875 15.375-13.5 12.375-23.438l-18.375-61.125c-0.1875-0.5625-0.375-1.125-0.5625-1.5 2.625-3.1875 4.125-7.125 4.125-11.625v-98.062c0-10.5-8.4375-18.75-18.75-18.75h-21.188v-25.125c36.188-7.6875 64.312-37.5 69.562-74.438 12.75 7.125 27.562 11.062 42.938 11.062 13.875 0 27.75-3.375 40.312-9.5625 41.438-21 59.438-69.938 42.562-112.31 11.625 5.25 24.375 8.25 37.125 8.25 31.875 0 61.5-17.25 77.25-44.625 12-20.625 15.188-44.812 9-67.688-3.75-14.062-10.688-26.812-20.25-37.125 36-11.438 62.062-45.188 62.062-84.938zm-154.69 60.188c-21 6.375-39.188 20.812-50.438 40.312-12 20.625-15.188 44.625-9 67.688 0.9375 3.375 1.875 6.5625 3.375 9.5625-11.438-5.25-24.188-8.0625-37.312-8.0625-13.875 0-27.938 3.375-40.312 9.5625-21.188 10.875-37.125 29.25-44.438 51.75-1.6875 5.0625-2.8125 10.125-3.5625 15.375-12.75-7.125-27.375-11.25-42.938-11.25s-30.188 4.125-42.938 11.25c-0.75-5.0625-1.875-10.125-3.5625-15.188-7.3125-22.688-23.062-41.062-44.438-51.75-12.375-6.375-26.438-9.75-40.312-9.75-13.125 0-25.688 2.8125-37.125 8.0625 1.3125-3 2.25-6.1875 3.1875-9.5625 6.1875-23.062 3-47.062-9-67.688-11.25-19.5-29.438-33.938-50.438-40.312 14.625-15.75 23.625-36.938 23.625-60.188s-9-44.438-23.625-60.188c21-6.375 39.188-20.812 50.438-40.312 14.062-24.375 15.375-52.875 5.8125-77.25 11.438 5.25 24 8.0625 37.312 8.0625 13.875 0 27.75-3.375 40.125-9.75 21.375-10.688 37.125-29.062 44.438-51.75 1.6875-5.0625 2.8125-10.125 3.5625-15.188 12.75 7.125 27.375 11.25 42.938 11.25s30.188-4.125 42.938-11.25c3.9375 27.938 21.188 53.438 48 66.938 12.375 6.375 26.25 9.75 40.312 9.75 13.125 0 25.688-2.8125 37.125-8.0625-1.3125 3-2.25 6.1875-3.1875 9.5625-6.1875 23.062-3 47.062 9 67.688 11.25 19.5 29.438 33.938 50.438 40.312-14.625 15.75-23.625 36.938-23.625 60.188s9 44.438 23.625 60.188z"/>
</svg>
