<svg class="icon" width="1200pt" height="1200pt" version="1.1" viewBox="-200 -200 1600 1600" xmlns="http://www.w3.org/2000/svg">
 <path d="m713.53 927.56c0.9375 0.42188 1.875 0.98438 2.7656 1.4062l92.531 42.375 30.328-72.516-90.141-41.625z"/>
 <path d="m757.87 839.81 88.781 40.594 21-50.109-84.984-39.234z"/>
 <path d="m1111.9 187.87c-10.922-5.2969-24-0.75-29.344 10.078l-112.12 221.29c-49.875 100.08-129.24 255.28-178.87 354.19l83.578 38.438 248.06-595.08c4.7812-11.109-0.23438-24.047-11.297-28.922z"/>
 <path d="m707.58 946.6c-2.3438 0.09375-4.4531-4.7812-6.1406-2.7656-16.875 14.344-30.328 32.25-39.422 52.453-20.812 45.188 9.3281 106.78 19.594 125.81 59.25-11.719 124.82-44.766 122.81-130.97-0.1875-0.1875-96.75-44.203-96.844-44.531z"/>
 <path d="m829.03 454.13c-38.906 0.28125-70.266 31.922-70.266 70.781 0 38.906 31.359 70.547 70.266 70.828 12.141 0.046875 24.141-3.1875 34.641-9.2812l35.484-69.938c-4.2656-35.531-34.359-62.297-70.125-62.391z"/>
 <path d="m689.58 690.42c-21.234 21.797-26.297 54.656-12.516 81.797 13.734 27.094 43.219 42.516 73.312 38.25 11.625-22.594 40.078-79.312 51.891-102.61-10.688-19.641-29.906-33.188-52.031-36.609s-44.531 3.7031-60.656 19.172z"/>
 <path d="m691.92 926.16c1.9219-3.9375 48.094-94.547 47.953-94.875-31.594 0.14062-60.938-16.125-77.531-43.031-16.594-26.859-18.047-60.422-3.75-88.594 14.25-28.172 42.141-46.875 73.594-49.406 31.5-2.5312 62.016 11.484 80.578 37.031l37.641-74.297c-132.28 24.469-155.86-171.19-21.375-178.69 36.469 0.23438 69.328 22.078 83.578 55.641l36.656-72.516v0.046875c-4.4062-6.2344-9.7031-11.859-15.656-16.641-67.031-56.156-188.76 36.141-253.18-24.375-62.484-64.688 31.641-192.66-26.156-260.29-29.531-35.438-89.719-46.359-178.87-32.297-163.82 25.734-404.29 186.19-400.36 449.48 3.75 232.97 204.66 433.82 438.98 438.61 54.75 1.3594 109.17-8.5312 159.89-29.156 5.4375-6.0938 11.484-11.672 18-16.641zm-168-330.42c-38.812-0.375-70.078-31.969-70.078-70.828 0-38.812 31.266-70.406 70.078-70.781 38.859 0.375 70.125 31.969 70.125 70.781 0 38.859-31.266 70.453-70.125 70.828zm-395.63-70.734 0.046875 0.046875c-0.046875-50.062 40.5-90.656 90.516-90.75 119.86 3.6562 119.91 177.71 0.1875 181.26-50.016 0.046875-90.656-40.5-90.703-90.516zm244.08 279.74c-87.234 82.078-210.42-40.922-128.16-128.21 87.328-82.219 210.05 40.875 128.16 128.21zm0-431.48c-87.094 82.172-210.42-40.781-128.16-128.16 87.516-81.938 210.05 40.875 128.16 128.16zm151.55 547.36c-119.53-3.75-119.72-177.47 0-181.26 120.05 3.75 119.81 177.61 0 181.26zm0-610.18c-119.77-3.7969-119.53-177.52 0-181.26 119.86 3.7031 120 177.56 0 181.31z"/>
 <path d="m523.92 759.19c-38.812 0.375-70.078 31.969-70.078 70.828 0 38.812 31.266 70.406 70.078 70.828 38.859-0.42188 70.125-32.016 70.125-70.828 0-38.859-31.266-70.453-70.125-70.828z"/>
 <path d="m308.21 669.84c-23.625 0.046875-45.656 11.859-58.781 31.5-13.078 19.641-15.516 44.578-6.4688 66.375 9.0469 21.844 28.359 37.688 51.562 42.281 23.156 4.6406 47.109-2.625 63.797-19.312 19.969-20.391 25.828-50.672 14.906-77.016-10.922-26.297-36.516-43.547-65.016-43.828z"/>
 <path d="m219.05 595.74c38.906-0.375 70.172-32.062 70.125-70.922s-31.453-70.406-70.312-70.688c-38.859 0.375-70.125 32.016-70.078 70.922 0.046875 38.859 31.406 70.406 70.266 70.688z"/>
 <path d="m308.21 238.36c-23.625 0.046875-45.703 11.859-58.828 31.547-13.125 19.641-15.562 44.578-6.5156 66.422s28.359 37.734 51.562 42.375 47.156-2.5781 63.891-19.312c19.969-20.391 25.828-50.672 14.906-77.016s-36.469-43.688-65.016-44.016z"/>
 <path d="m523.92 149.02c-38.812 0.42188-70.078 32.016-70.078 70.828s31.266 70.406 70.078 70.828c38.859-0.42188 70.125-32.016 70.125-70.828s-31.266-70.406-70.125-70.828z"/>
</svg>
