<?xml version="1.0" encoding="UTF-8" standalone="no"?>
<!DOCTYPE svg PUBLIC "-//W3C//DTD SVG 1.1//EN" "http://www.w3.org/Graphics/SVG/1.1/DTD/svg11.dtd">
<svg class="icon" width="100%" height="100%" viewBox="0 0 926 794" version="1.1" xmlns="http://www.w3.org/2000/svg" xmlns:xlink="http://www.w3.org/1999/xlink" xml:space="preserve" xmlns:serif="http://www.serif.com/" style="fill-rule:evenodd;clip-rule:evenodd;stroke-linejoin:round;stroke-miterlimit:2;">
    <path d="M338.9,681.382L8.549,351.215C0.204,342.875 -2.294,330.329 2.219,319.428C6.733,308.527 17.369,301.419 29.168,301.419L238.303,301.419L129.316,40.405C125.557,31.402 126.548,21.116 131.957,12.997C137.365,4.878 146.475,0 156.231,0L769.747,0C779.5,-0 788.607,4.875 794.016,12.99C799.426,21.106 800.421,31.388 796.668,40.39L687.847,301.419L896.81,301.419C908.605,301.419 919.24,308.523 923.755,319.42C928.27,330.317 925.778,342.861 917.44,351.204L587.517,681.312L758.578,610.4C773.448,604.236 790.526,611.304 796.69,626.174C802.855,641.045 795.786,658.123 780.916,664.287L475.018,791.095C471.278,792.746 467.261,793.572 463.242,793.574C463.243,793.574 463.241,793.574 463.24,793.574C459.222,793.575 455.203,792.751 451.46,791.101L145.077,664.293C130.203,658.137 123.125,641.063 129.281,626.19C135.437,611.316 152.511,604.238 167.385,610.394L338.9,681.382ZM262.66,359.752L99.61,359.752L379.437,639.423L262.66,359.752ZM624.647,301.419L725.988,58.333L200.017,58.333L301.517,301.419L624.647,301.419ZM546.955,639.377L826.423,359.752L663.528,359.752L546.955,639.377ZM600.329,359.752L325.875,359.752L463.21,688.659L600.329,359.752Z"/>
</svg>
