<?xml version="1.0" encoding="UTF-8" standalone="no"?>
<!DOCTYPE svg PUBLIC "-//W3C//DTD SVG 1.1//EN" "http://www.w3.org/Graphics/SVG/1.1/DTD/svg11.dtd">
<svg class="icon" width="100%" height="100%" viewBox="0 0 1005 939" version="1.1" xmlns="http://www.w3.org/2000/svg" xmlns:xlink="http://www.w3.org/1999/xlink" xml:space="preserve" xmlns:serif="http://www.serif.com/" style="fill-rule:evenodd;clip-rule:evenodd;stroke-linejoin:round;stroke-miterlimit:2;">
    <path d="M67.076,497.602C49.424,504.205 28.769,500.389 14.588,486.153C0.438,471.948 -3.418,451.298 3.019,433.581L2.384,432.946C2.76,431.934 3.17,430.931 3.612,429.94L4.507,429.94C6.908,424.669 10.268,419.731 14.588,415.395C33.963,395.945 65.423,395.945 84.797,415.395C89.118,419.731 92.478,424.669 94.879,429.94L95.773,429.94C104.126,448.641 100.66,471.385 85.375,486.728C80.189,491.935 74.15,495.77 67.709,498.234L67.076,497.602ZM502.441,429.94L503.469,429.94C510.916,439.882 510.133,454.081 501.122,463.127C491.404,472.883 475.624,472.883 465.907,463.127C456.895,454.081 456.113,439.882 463.559,429.94L464.587,429.94C465.171,429.201 465.803,428.487 466.484,427.803C475.883,418.368 491.145,418.368 500.544,427.803C501.225,428.487 501.857,429.201 502.441,429.94ZM460.208,897.396L459.047,896.915C453.945,886.487 455.711,873.518 464.346,864.849C475.059,854.095 492.455,854.095 503.168,864.849C511.799,873.514 513.568,886.475 508.474,896.901L507.313,897.382C506.091,899.677 504.517,901.831 502.59,903.765C500.732,905.631 498.666,907.163 496.468,908.361L495.982,909.534C488.332,913.351 479.27,913.364 471.61,909.573L471.121,908.402C468.894,907.197 466.803,905.652 464.924,903.765C463.001,901.835 461.429,899.685 460.208,897.396ZM232.965,128.031L751.731,123.517C744.896,136.527 745.015,152.268 752.089,165.182L246.581,169.581L212.013,147.722L232.965,128.031ZM210.284,175.582L316.492,429.94L435.857,429.94C431.516,443.721 433.218,459.012 440.966,471.607L333.89,471.607L483.672,830.323L632.14,471.607L526.062,471.607C533.81,459.012 535.513,443.721 531.171,429.94L649.385,429.94L756.334,171.539C757.314,172.761 758.37,173.943 759.501,175.078C769.136,184.751 782.181,188.936 794.767,187.633L694.479,429.94L850.837,429.94L865.404,445.449L817.694,471.607L677.234,471.607L543.06,795.787L851.012,487.663L877.75,484.807L871.699,525.906L572.531,825.242L748.066,752.475C747.872,754.134 747.772,755.821 747.772,757.532C747.772,771.083 754.049,783.191 763.847,791.038L536.291,885.37C536.491,871.577 531.354,857.721 520.879,847.206C500.391,826.638 467.123,826.638 446.635,847.206C436.153,857.728 431.016,871.597 431.224,885.399L203.2,791.023C212.987,783.175 219.256,771.075 219.256,757.532C219.256,755.813 219.155,754.118 218.959,752.452L394.949,825.291L86.475,516.99C92.43,513.655 98.029,509.449 103.087,504.372C108.226,499.212 112.469,493.492 115.816,487.405L423.904,795.321L288.737,471.607L122.297,471.607C126.151,458.009 126.151,443.538 122.297,429.94L271.339,429.94L172.674,193.648L178.389,184.611L205.146,213.083L201.874,174.149L210.284,175.582ZM484.447,937.405L483.842,938.867L483.232,937.407C483.637,937.411 484.042,937.411 484.447,937.405ZM176.756,739.741C186.476,739.741 194.256,747.774 194.256,757.532C194.256,767.289 186.476,775.322 176.756,775.322C167.036,775.322 159.256,767.289 159.256,757.532C159.256,747.774 167.036,739.741 176.756,739.741ZM777.213,130.597C784.42,123.361 796.124,123.361 803.331,130.597C810.709,138.003 810.709,150.029 803.331,157.435C796.124,164.67 784.42,164.67 777.213,157.435C769.835,150.029 769.835,138.003 777.213,130.597ZM790.272,739.741C799.992,739.741 807.772,747.774 807.772,757.532C807.772,767.289 799.992,775.322 790.272,775.322C780.552,775.322 772.772,767.289 772.772,757.532C772.772,747.774 780.552,739.741 790.272,739.741ZM471.796,4.869C478.263,-1.623 488.765,-1.623 495.232,4.869C501.876,11.538 501.876,22.367 495.232,29.036C488.765,35.528 478.263,35.528 471.796,29.036C465.153,22.367 465.153,11.538 471.796,4.869ZM192.362,108.675L188.689,130.229C188.408,131.882 188.907,133.573 190.041,134.807C191.175,136.042 192.817,136.683 194.488,136.543L208.08,135.401L198.14,144.741C196.919,145.89 196.297,147.539 196.456,149.208C196.616,150.877 197.538,152.379 198.956,153.275L217.435,164.96L195.882,161.288C194.229,161.006 192.538,161.505 191.303,162.64C190.068,163.774 189.428,165.416 189.568,167.087L190.71,180.679L181.369,170.739C180.221,169.517 178.572,168.895 176.903,169.055C175.234,169.214 173.732,170.137 172.836,171.554L161.15,190.034L164.823,168.48C165.104,166.827 164.605,165.137 163.471,163.902C162.337,162.667 160.695,162.026 159.024,162.167L145.432,163.309L155.372,153.968C156.594,152.82 157.216,151.171 157.056,149.501C156.897,147.832 155.974,146.331 154.557,145.435L136.077,133.749L157.631,137.421C159.284,137.703 160.974,137.204 162.209,136.07C163.444,134.935 164.084,133.294 163.944,131.623L162.802,118.031L172.143,127.97C173.291,129.192 174.94,129.814 176.609,129.655C178.279,129.495 179.78,128.572 180.676,127.155L192.362,108.675ZM889.94,363.442L916.305,411.528C917.111,412.998 918.552,414.013 920.208,414.276C921.864,414.539 923.548,414.021 924.771,412.873L949.05,390.067L944.199,423.023C943.954,424.682 944.491,426.36 945.653,427.569C946.815,428.778 948.471,429.381 950.138,429.203L1004.67,423.379L956.581,449.743C955.111,450.549 954.097,451.99 953.833,453.646C953.57,455.302 954.088,456.987 955.236,458.209L978.042,482.488L945.086,477.637C943.428,477.393 941.749,477.93 940.54,479.092C939.331,480.254 938.728,481.909 938.906,483.577L944.731,538.105L918.366,490.02C917.56,488.55 916.119,487.535 914.463,487.272C912.807,487.009 911.122,487.527 909.9,488.675L885.621,511.48L890.472,478.525C890.716,476.866 890.179,475.187 889.017,473.978C887.856,472.769 886.2,472.166 884.532,472.344L830.004,478.169L878.089,451.804C879.56,450.998 880.574,449.557 880.837,447.901C881.1,446.245 880.583,444.561 879.435,443.339L856.629,419.059L889.584,423.911C891.243,424.155 892.922,423.618 894.131,422.456C895.34,421.294 895.943,419.638 895.765,417.971L889.94,363.442Z"/>
</svg>
