<svg class="icon" width="100" height="100" viewBox="20 20 60 60" fill="none" xmlns="http://www.w3.org/2000/svg">
<path d="M73.656 40.3192H48.7198C45.6904 40.3192 43.3759 42.6061 43.3759 45.5993V59.6808C43.3759 62.4958 45.6904 64.9609 48.7198 64.9609H66.5319L73.656 72V64.9609C76.6854 64.9609 79 62.4958 79 59.6808V45.5993C79 42.6094 76.6854 40.3192 73.656 40.3192Z"/>
<path d="M52.2802 28H27.344C24.3146 28 22 30.2869 22 33.2801V47.3616C22 50.1766 24.3146 52.6418 27.344 52.6418V59.6808L34.4681 52.6418H39.8121V45.6027C39.8121 40.6757 43.7298 36.8014 48.7198 36.8014H57.6276V33.2801C57.6242 30.2869 55.3096 28 52.2802 28Z"/>
</svg>
