<?xml version="1.0" encoding="UTF-8"?>
<svg class="icon" width="100pt" height="100pt" version="1.1" viewBox="0 0 100 100" xmlns="http://www.w3.org/2000/svg">
 <path d="m90.637 73.449-32.52-56.266c-1.6953-2.9336-4.7305-4.6836-8.1172-4.6836-3.3906 0-6.4219 1.75-8.1172 4.6836l-32.52 56.266c-1.6953 2.9336-1.6953 6.4336-0.003906 9.3633 1.6953 2.9336 4.7305 4.6875 8.1211 4.6875h65.035c3.3906 0 6.4258-1.7539 8.1211-4.6875 1.6914-2.9336 1.6914-6.4336-0.003907-9.3633zm-33.281-25.188-7.3984 17.48h3.2969c0.83984 0 1.2539 1.0156 0.66016 1.6055l-8.7266 8.6328c-0.48047 0.47656-1.2969 0.30078-1.5352-0.33594l-3.2734-8.6328c-0.23438-0.61328 0.22266-1.2695 0.87891-1.2695h2.6875l2.8945-12.973h-5.1133c-0.66406 0-1.1367-0.64844-0.92969-1.2773l6.3242-19.566c0.13281-0.40234 0.50781-0.67578 0.92969-0.67578h5.7695c0.66406 0 1.1367 0.64844 0.92969 1.2773l-4.6445 14.371h6.3516c0.69922 0 1.1758 0.71484 0.90234 1.3594z"/>
</svg>
