<?xml version="1.0" encoding="UTF-8" standalone="no"?>
<!DOCTYPE svg PUBLIC "-//W3C//DTD SVG 1.1//EN" "http://www.w3.org/Graphics/SVG/1.1/DTD/svg11.dtd">
<svg class="icon" width="100%" height="100%" viewBox="0 0 926 926" version="1.1" xmlns="http://www.w3.org/2000/svg" xmlns:xlink="http://www.w3.org/1999/xlink" xml:space="preserve" xmlns:serif="http://www.serif.com/" style="fill-rule:evenodd;clip-rule:evenodd;stroke-linejoin:round;stroke-miterlimit:2;">
    <path d="M433.951,492.155L29.167,492.155C13.069,492.155 -0,479.085 0,462.988C0,446.89 13.069,433.821 29.167,433.821L433.935,433.821L433.866,188.321L156.484,190.734C140.387,190.875 127.204,177.92 127.064,161.823C126.924,145.726 139.879,132.543 155.976,132.403L433.849,129.985L433.821,29.175C433.817,13.077 446.882,0.005 462.98,0C479.077,-0.005 492.15,13.061 492.155,29.159L492.183,129.478L769.492,127.064C785.589,126.924 798.771,139.879 798.911,155.976C799.052,172.073 786.097,185.255 770,185.396L492.199,187.813L492.268,433.821L896.809,433.821C912.907,433.821 925.976,446.89 925.976,462.988C925.976,479.085 912.907,492.155 896.809,492.155L492.284,492.155L492.354,740.579L769.746,740.579C785.843,740.579 798.913,753.648 798.913,769.746C798.913,785.843 785.843,798.913 769.746,798.913L492.37,798.913L492.397,896.801C492.402,912.899 479.336,925.971 463.239,925.976C447.141,925.98 434.069,912.915 434.064,896.817L434.037,798.913L156.23,798.913C140.132,798.913 127.063,785.843 127.063,769.746C127.063,753.648 140.132,740.579 156.23,740.579L434.02,740.579L433.951,492.155Z"/>
</svg>
