<svg class="icon" width="1200pt" height="1200pt" version="1.1" viewBox="-200 -200 1600 1600" xmlns="http://www.w3.org/2000/svg">
 <path d="m107.02 1200h985.95v-456.46h-80.785c12.984-106.37-7.5859-209.04-64.871-300.77-38.184-61.176-90.602-112.66-152.62-149.83l85.969-168.48-243.89-124.46-295.08 578.21 91.945 46.922-14.93 29.258-61.969-31.633-30.551 60.07 183.86 93.863 30.551-60.047-61.922-31.609 14.93-29.258 91.945 46.922 122.21-239.43c31.008 20.711 57.383 47.832 77.305 79.488 41.113 65.281 47.641 129.94 33.359 200.83l-75.621 0.003906-22.246 89.039h-487.97v67.441l471.09-0.003907-17.832 71.375-522.12 0.003907z" fill-rule="evenodd"/>
</svg>
