<?xml version="1.0" encoding="UTF-8" standalone="no"?>
<!DOCTYPE svg PUBLIC "-//W3C//DTD SVG 1.1//EN" "http://www.w3.org/Graphics/SVG/1.1/DTD/svg11.dtd">
<svg class="icon" width="100%" height="100%" viewBox="0 0 981 997" version="1.1" xmlns="http://www.w3.org/2000/svg" xmlns:xlink="http://www.w3.org/1999/xlink" xml:space="preserve" xmlns:serif="http://www.serif.com/" style="fill-rule:evenodd;clip-rule:evenodd;stroke-linejoin:round;stroke-miterlimit:2;">
    <path d="M518.26,179.927L518.263,191.219L736.886,189.316C732.85,202.896 732.969,217.46 737.245,230.981L518.275,232.887L518.342,471.554C505.385,464.543 489.662,464.504 476.675,471.437L476.608,233.249L260.357,235.131C264.254,221.53 264.135,207.011 259.999,193.466L424.209,192.037L417.247,210.315L434.672,191.946L476.597,191.581L476.584,147.762L489.566,134.077L518.26,179.927ZM148.574,495.489L455.872,495.489C450.899,509.247 452.891,524.981 461.85,537.156L148.574,537.156C151.885,523.482 151.885,509.163 148.574,495.489ZM538.927,495.489L861.213,495.489C857.223,509.067 857.223,523.579 861.213,537.156L532.949,537.156C541.908,524.981 543.9,509.247 538.927,495.489ZM518.364,549.887L518.434,802.247L749.469,802.247C747.021,808.725 745.681,815.748 745.681,823.081C745.681,830.414 747.021,837.437 749.469,843.914L518.446,843.914L518.457,883.463C504.926,879.173 490.344,879.126 476.79,883.323L476.779,843.914L249.425,843.914C251.717,837.395 252.964,830.382 252.964,823.081C252.964,815.779 251.717,808.767 249.425,802.247L476.768,802.247L476.697,550.028C489.687,556.953 505.41,556.906 518.364,549.887ZM18.631,471.139C43.438,446.236 83.718,446.236 108.525,471.139C133.367,496.077 133.367,536.569 108.525,561.506C83.718,586.41 43.438,586.41 18.631,561.506C-6.21,536.569 -6.21,496.077 18.631,471.139ZM771.45,176.574C789.502,158.452 818.813,158.452 836.865,176.574C855.003,194.782 855.003,224.348 836.865,242.556C818.813,260.678 789.502,260.678 771.45,242.556C753.312,224.348 753.312,194.782 771.45,176.574ZM483.137,496.109C491.009,488.207 503.79,488.207 511.662,496.109C519.698,504.177 519.698,517.276 511.662,525.344C503.79,533.246 491.009,533.246 483.137,525.344C475.1,517.276 475.1,504.177 483.137,496.109ZM896.536,481.362C915.679,462.145 946.762,462.145 965.905,481.362C985.126,500.657 985.126,531.988 965.905,551.283C946.762,570.5 915.679,570.5 896.536,551.283C877.315,531.988 877.315,500.657 896.536,481.362ZM156.276,180.26C175.243,161.22 206.04,161.22 225.008,180.26C244.054,199.381 244.054,230.427 225.008,249.547C206.04,268.588 175.243,268.588 156.276,249.547C137.229,230.427 137.229,199.381 156.276,180.26ZM190.642,784.381C211.879,784.381 229.051,801.761 229.051,823.081C229.051,844.401 211.879,861.78 190.642,861.78C169.404,861.78 152.232,844.401 152.232,823.081C152.232,801.761 169.404,784.381 190.642,784.381ZM804.157,788.227C823.277,788.227 838.721,803.887 838.721,823.081C838.721,842.274 823.277,857.934 804.157,857.934C785.038,857.934 769.594,842.274 769.594,823.081C769.594,803.887 785.038,788.227 804.157,788.227ZM465.092,917.551C482.923,899.651 511.876,899.651 529.707,917.551C547.626,935.54 547.626,964.748 529.707,982.737C511.876,1000.64 482.923,1000.64 465.092,982.737C447.173,964.748 447.173,935.54 465.092,917.551ZM549.536,-0L527.944,56.688C527.476,57.918 527.603,59.296 528.288,60.42C528.974,61.544 530.141,62.287 531.449,62.433L567.877,66.506L536.805,85.951C535.689,86.65 534.959,87.825 534.828,89.135C534.697,90.445 535.179,91.741 536.134,92.647L580.144,134.395L523.456,112.804C522.226,112.335 520.848,112.462 519.724,113.148C518.6,113.833 517.857,115 517.711,116.308L513.638,152.736L494.193,121.664C493.494,120.549 492.319,119.819 491.009,119.687C489.699,119.556 488.402,120.038 487.496,120.993L445.749,165.003L467.34,108.315C467.809,107.085 467.682,105.707 466.996,104.583C466.311,103.459 465.144,102.716 463.836,102.57L427.407,98.497L458.479,79.052C459.595,78.353 460.325,77.178 460.457,75.868C460.588,74.558 460.106,73.261 459.151,72.356L415.141,30.608L471.829,52.199C473.059,52.668 474.437,52.541 475.561,51.855C476.684,51.17 477.428,50.003 477.574,48.695L481.647,12.267L501.092,43.339C501.791,44.454 502.966,45.184 504.276,45.316C505.585,45.447 506.882,44.965 507.788,44.01L549.536,-0Z"/>
</svg>
