<svg class="icon" width="100" height="100" viewBox="0 0 100 100" fill="none" xmlns="http://www.w3.org/2000/svg">
<path d="M45.5913 76.3878C44.082 75.5019 40.6486 73.4937 37.9643 71.9253C31.5382 68.1715 31.7122 68.2765 31.8362 68.2524C31.9643 68.2284 32.8242 68.3727 39.7278 69.5759C42.6356 70.0834 45.7325 70.6193 46.6098 70.7681C47.4871 70.9168 48.2711 71.0678 48.3558 71.105L48.5078 71.1706V74.0647C48.5078 76.8231 48.4687 78.0066 48.3797 78C48.358 77.9978 47.1027 77.2715 45.5935 76.3856L45.5913 76.3878ZM51.7912 77.86C51.6978 77.7069 51.6392 76.2697 51.624 73.8372C51.6153 72.4656 51.6131 71.2778 51.6175 71.1969C51.624 71.0722 51.6783 71.0437 51.9801 71.0044C53.3396 70.8316 58.165 70.0047 63.3531 69.0553C66.8929 68.4078 68.3674 68.1562 68.4478 68.1825C68.5238 68.2087 67.9114 68.5762 65.7267 69.8231C63.4161 71.1422 53.546 76.906 52.6165 77.4795C52.2104 77.7288 51.8694 77.9345 51.8585 77.9345C51.8455 77.9345 51.8151 77.9016 51.7912 77.86ZM46.6705 67.7318C46.627 67.6902 43.0329 67.0449 37.4885 66.0846C34.7653 65.6121 31.6705 65.0718 30.6065 64.8837C28.1872 64.4549 26.539 64.2078 26.0851 64.2078C25.4879 64.2078 25.4944 64.2406 25.894 63.1949C27.273 59.5921 32.5764 46.2067 33.1168 44.9618C33.3492 44.4259 33.575 43.9971 33.6163 44.0103C33.7466 44.0518 34.4567 45.29 38.496 52.5111C39.3407 54.0227 40.2485 55.6174 40.5113 56.0549C40.7741 56.4923 41.0911 57.0546 41.2149 57.3018C41.3386 57.549 42.2573 59.1809 43.2541 60.9287C46.5506 66.6995 47.0827 67.6397 47.0827 67.6991C47.0827 67.7585 46.7269 67.7843 46.6705 67.7318ZM53.1183 67.6574C53.1183 67.6006 53.342 67.1477 53.6156 66.649C56.0913 62.1537 65.9509 44.8548 66.4284 44.1677L66.5674 43.9686L66.765 44.4083C66.8736 44.6489 67.321 45.769 67.7597 46.8955C68.1983 48.0221 68.9693 49.9733 69.4731 51.2333C71.7989 57.0456 74.4179 63.7964 74.3723 63.8681C74.2616 64.0497 72.5699 64.3756 65.3555 65.6072C59.4875 66.6113 53.9931 67.5759 53.4894 67.6941C53.1289 67.7772 53.1159 67.7772 53.1159 67.6591L53.1183 67.6574ZM49.7066 66.0693C49.1246 65.1484 44.5533 57.1182 41.1829 51.096C40.5206 49.9125 39.7431 48.5453 39.4564 48.0575C39.1676 47.5697 38.8418 46.9856 38.7289 46.7603C38.616 46.535 38.0752 45.566 37.5258 44.61C36.9764 43.6519 36.3987 42.6347 36.2445 42.3459L35.9622 41.8253L37.5735 41.7684C39.5259 41.6984 64.0025 41.6875 64.072 41.7575C64.1372 41.8231 64.0959 41.8931 55.3048 57.4504C50.5206 65.9182 50.1645 66.5331 50.0624 66.5331C50.0277 66.5331 49.867 66.3253 49.7084 66.0716L49.7066 66.0693ZM74.6874 56.2497C74.1727 54.8738 69.7252 43.4525 69.0301 41.7227L68.7912 41.1255L69.0735 40.8936C69.7924 40.3052 72.95 38.3167 74.2703 37.6233L74.9131 37.2842L74.9587 37.4461C75.0152 37.6452 75.013 49.1972 74.9566 53.6207L74.9153 56.8626L74.6851 56.25L74.6874 56.2497ZM25.015 54.2722C24.9563 51.4809 25.0823 39.3532 25.1822 38.1962C25.2169 37.8047 25.2712 37.4568 25.306 37.4218C25.3928 37.3343 25.8206 37.5597 27.6231 38.649C29.4365 39.745 31.2845 40.9569 31.2845 41.0509C31.2845 41.2544 25.8727 55.0269 25.2864 56.3132L25.0671 56.7967L25.015 54.2722ZM36.5658 38.6117C36.6657 38.428 43.4956 29.9407 44.5725 28.6588C44.857 28.3198 45.363 27.6897 45.6952 27.2588C46.0275 26.8279 46.7289 25.9507 47.2501 25.3119C47.7735 24.6732 48.5813 23.6669 49.0461 23.0763C49.5108 22.4856 49.93 22 49.9756 22C50.0755 22 51.663 23.855 52.8422 25.3469C53.3025 25.9288 53.8368 26.5894 54.03 26.8147C54.2233 27.04 55.1571 28.1928 56.104 29.3763C57.0509 30.5597 58.8185 32.756 60.0347 34.2588C63.5289 38.5791 63.4485 38.4741 63.3247 38.5441C63.0555 38.6973 60.4495 38.7301 48.8941 38.7323C37.1109 38.7345 36.5049 38.7279 36.5655 38.6141L36.5658 38.6117ZM32.4722 37.9511C32.3224 37.8636 31.3473 37.3058 30.3028 36.7108C29.2582 36.1158 27.9965 35.3874 27.4991 35.0921L26.5936 34.5518L26.8216 34.3964C27.5534 33.8955 30.2224 32.3752 40.1014 26.8275C43.0527 25.1693 43.5044 24.9243 43.537 24.9572C43.5761 24.9965 42.879 25.8912 40.5162 28.8269C34.1012 36.8024 33.0176 38.1173 32.8481 38.1128C32.7916 38.1107 32.6221 38.0386 32.4722 37.9511ZM66.2847 37.1439C65.8438 36.608 64.8427 35.372 64.0631 34.3942C63.2835 33.4186 62.4604 32.4036 62.2345 32.1411C62.0087 31.8786 61.5353 31.2945 61.1835 30.8439C60.8317 30.3933 60.1758 29.5795 59.7285 29.0348C58.0259 26.9676 56.2907 24.7911 56.3211 24.7604C56.3385 24.7429 57.6003 25.4429 59.1248 26.3135C60.6493 27.1842 64.4909 29.3651 67.6613 31.161C70.8319 32.9548 73.4703 34.451 73.527 34.486C73.6074 34.5342 73.5487 34.591 73.2664 34.7463C73.0666 34.8557 71.7853 35.5842 70.4194 36.3673C67.6657 37.9445 67.34 38.1195 67.1923 38.1195C67.1358 38.1195 66.7297 37.682 66.2867 37.146L66.2847 37.1439Z"/>
</svg>
