<?xml version="1.0" encoding="UTF-8" standalone="no"?>
<!DOCTYPE svg PUBLIC "-//W3C//DTD SVG 1.1//EN" "http://www.w3.org/Graphics/SVG/1.1/DTD/svg11.dtd">
<svg class="icon" width="100%" height="100%" viewBox="0 0 926 799" version="1.1" xmlns="http://www.w3.org/2000/svg" xmlns:xlink="http://www.w3.org/1999/xlink" xml:space="preserve" xmlns:serif="http://www.serif.com/" style="fill-rule:evenodd;clip-rule:evenodd;stroke-linejoin:round;stroke-miterlimit:2;">
    <path d="M2.145,346.897C0.631,343.165 -0.054,339.302 0.003,335.511C0.052,331.922 0.769,328.284 2.224,324.772C2.247,324.714 2.271,324.657 2.295,324.6L129.158,23.658C129.536,22.717 129.961,21.8 130.432,20.91C131.831,18.249 133.598,15.883 135.643,13.848C137.609,11.886 139.882,10.182 142.428,8.817C144.887,7.492 147.558,6.509 150.379,5.933C152.346,5.529 154.324,5.335 156.285,5.339C156.356,5.339 156.428,5.34 156.499,5.34L769.001,0.01C772.719,-0.089 776.511,0.525 780.184,1.934C780.425,2.027 780.666,2.122 780.905,2.222C785.641,4.182 789.586,7.248 792.565,10.998C794.238,13.097 795.636,15.448 796.697,18.01L798.827,23.151C798.881,23.281 798.935,23.412 798.989,23.543L923.759,324.764L923.761,324.768C925.251,328.365 925.967,332.091 925.985,335.761C926.01,339.579 925.282,343.465 923.713,347.207C923.619,347.43 923.523,347.653 923.424,347.874C921.891,351.293 919.773,354.277 917.238,356.758C917.181,356.815 917.123,356.871 917.065,356.927L483.866,790.369C478.182,796.056 470.733,798.906 463.281,798.917C462.944,798.918 462.607,798.913 462.27,798.902C455.134,798.667 448.066,795.827 442.617,790.381L8.937,356.943C8.806,356.816 8.676,356.688 8.547,356.559C6.029,354.046 3.936,351.032 2.435,347.587C2.336,347.358 2.239,347.128 2.145,346.897ZM156.107,109.9L83.363,282.462L207.181,232.218L156.107,109.9ZM632.734,59.532L319.471,62.258L470.245,125.468L632.734,59.532ZM842.757,281.64L769.762,105.413L718.402,229.505L842.757,281.64ZM546.261,645.42L826.428,365.096L662.283,365.096L546.261,645.42ZM686.426,306.763L751.807,306.763L696.093,283.405L686.426,306.763ZM178.616,306.763L238.307,306.763L229.659,286.05L178.616,306.763ZM262.664,365.096L99.614,365.096L379.441,644.767L262.664,365.096ZM325.879,365.096L463.117,693.77L599.15,365.096L325.879,365.096ZM205.971,77.926L261.236,210.283L393.578,156.579L205.971,77.926ZM713.054,89.892L546.549,157.458L664.604,206.951L713.054,89.892ZM301.522,306.763L623.294,306.763L642.296,260.851L469.883,188.569L283.714,264.115L301.522,306.763Z"/>
</svg>
