<?xml version="1.0" encoding="UTF-8" standalone="no"?>
<!DOCTYPE svg PUBLIC "-//W3C//DTD SVG 1.1//EN" "http://www.w3.org/Graphics/SVG/1.1/DTD/svg11.dtd">
<svg class="icon" width="100%" height="100%" viewBox="0 0 926 926" version="1.1" xmlns="http://www.w3.org/2000/svg" xmlns:xlink="http://www.w3.org/1999/xlink" xml:space="preserve" xmlns:serif="http://www.serif.com/" style="fill-rule:evenodd;clip-rule:evenodd;stroke-linejoin:round;stroke-miterlimit:2;">
    <path d="M144.672,134.79L451.43,2.388C458.806,-0.796 467.17,-0.796 474.546,2.388L781.304,134.79C788.211,137.771 793.7,143.307 796.622,150.239L923.685,451.658C926.715,458.844 926.74,466.945 923.756,474.15L796.692,780.907C793.733,788.052 788.058,793.728 780.915,796.689L474.4,923.753C467.254,926.715 459.224,926.717 452.077,923.759L145.076,796.695C137.926,793.736 132.245,788.057 129.283,780.907L2.22,474.15C-0.764,466.945 -0.739,458.844 2.29,451.658L129.354,150.239C132.276,143.307 137.764,137.771 144.672,134.79ZM178.552,183.702L60.777,463.087L178.551,747.418L463.222,865.239L747.421,747.427L865.199,463.087L747.424,183.702L462.988,60.934L178.552,183.702Z"/>
</svg>
