<?xml version="1.0" encoding="UTF-8"?>
<svg class="icon" width="100pt" height="100pt" version="1.1" viewBox="0 0 100 100" xmlns="http://www.w3.org/2000/svg">
 <path d="m53.398 90.629l2.8008-2.8008c1.2344-1.2305 1.4023-3.1719 0.40234-4.5977l-2.7188-3.8789h-0.003906c1.0547-1.8242 1.8633-3.7773 2.4102-5.8125l4.6602-0.82031c1.7266-0.28516 2.9961-1.7773 3-3.5273v-4c-0.003907-1.7539-1.2734-3.2422-3-3.5312l-4.6602-0.82031c-0.54687-2.0312-1.3555-3.9883-2.4102-5.8086l2.7227-3.832c1-1.4258 0.83203-3.3672-0.40234-4.5977l-2.8008-2.8008c-1.2305-1.2344-3.1719-1.4023-4.5977-0.40234l-3.8789 2.7188v0.003906c-1.8242-1.0547-3.7773-1.8633-5.8125-2.4102l-0.82031-4.6602c-0.28516-1.7266-1.7773-2.9961-3.5273-3h-4c-1.7539 0.003907-3.2422 1.2734-3.5312 3l-0.82031 4.6602c-2.0352 0.54687-3.9883 1.3555-5.8086 2.4102l-3.832-2.7227c-1.4258-1-3.3672-0.83203-4.5977 0.40234l-2.8008 2.8008c-1.2227 1.2383-1.3789 3.1797-0.37109 4.5977l2.7188 3.8789c-1.0508 1.8242-1.8633 3.7773-2.4102 5.8125l-4.6602 0.82031c-1.7266 0.28516-2.9922 1.7773-3 3.5273v4c0.007812 1.7539 1.2734 3.2422 3 3.5312l4.6602 0.82031c0.54688 2.0352 1.3594 3.9883 2.4102 5.8086l-2.7188 3.832c-1 1.4258-0.83203 3.3672 0.39844 4.5977l2.8008 2.8008c1.2344 1.2344 3.1719 1.4023 4.6016 0.40234l3.8789-2.7188v-0.003906c1.8242 1.0547 3.7773 1.8633 5.8086 2.4102l0.82031 4.6602c0.28906 1.7266 1.7812 2.9961 3.5312 3h4c1.75-0.003906 3.2422-1.2734 3.5312-3l0.82031-4.6602c2.0312-0.54688 3.9844-1.3555 5.8086-2.4102l3.8008 2.6914c1.418 1.0078 3.3594 0.85156 4.5977-0.37109zm-20.617-12.738c-4.3203 0-8.2148-2.6055-9.8711-6.5977-1.6523-3.9922-0.73438-8.5859 2.3203-11.637 3.0586-3.0547 7.6523-3.9648 11.645-2.3086 3.9883 1.6562 6.5898 5.5508 6.5859 9.8711-0.007813 5.8945-4.7852 10.672-10.68 10.672zm64.418-59.172c-0.45312-1.6797-2.0469-2.793-3.7773-2.6406l-4.2383 0.37109h-0.003906c-1.4766-2.2305-3.3906-4.1406-5.6211-5.6211l0.37109-4.2383c0.15625-1.7383-0.96094-3.3398-2.6484-3.7891l-3.8203-1c-1.6953-0.44141-3.4609 0.40234-4.1797 2l-1.8008 3.8008c-2.668 0.15625-5.2773 0.85156-7.6719 2.0469l-3.4883-2.4492c-1.4258-1-3.3672-0.83203-4.6016 0.40234l-2.8008 2.8008 0.003906-0.003906c-1.2344 1.2344-1.4023 3.1758-0.40234 4.6016l2.4805 3.4883c-1.1953 2.3945-1.8945 5.0039-2.0508 7.6719l-3.8984 1.8398c-1.5977 0.71875-2.4414 2.4844-2 4.1797l1 3.8203c0.44922 1.6836 2.043 2.8008 3.7773 2.6484l4.2383-0.37109 0.003906 0.003906c1.4766 2.2305 3.3906 4.1406 5.6211 5.6172l-0.37109 4.2383v0.003906c-0.12891 1.7305 1 3.3047 2.6797 3.7383l3.8203 1c1.6953 0.44141 3.4609-0.40234 4.1797-2l1.8008-3.8711v0.003907c2.6797-0.14062 5.3008-0.82422 7.7109-2.0117l3.4883 2.4805c1.4258 1 3.3672 0.83203 4.6016-0.40234l2.8008-2.8008-0.003906 0.003906c1.2344-1.2344 1.4023-3.1758 0.40234-4.6016l-2.4492-3.4883c1.1953-2.3945 1.8906-5.0039 2.0469-7.6719l3.8711-1.8008c1.5977-0.71875 2.4414-2.4844 2-4.1797zm-19.199 13.91c-2.1445 2.125-5.3555 2.75-8.1406 1.5898-2.7891-1.1641-4.6016-3.8867-4.6016-6.9023 0-3.0195 1.8125-5.7422 4.6016-6.9062 2.7852-1.1602 5.9961-0.53516 8.1406 1.5898 1.418 1.4062 2.2188 3.3203 2.2188 5.3164s-0.80078 3.9102-2.2188 5.3125z"/>
</svg>
