<svg class="icon" width="1200pt" height="1200pt" version="1.1" viewBox="-200 -200 1600 1600" xmlns="http://www.w3.org/2000/svg">
 <path d="m1133.7 990.1-0.30078-0.42188c-40.297-58.078-83.578-114.65-129.25-168.53-45.73-53.941-94.078-105.49-145.12-154.04-97.262-92.316-204.68-174.42-322.34-235.93 200.44 53.555 457.2 275.63 457.2 275.63 3.0586-196.07-36.863-352.23-206.2-446.3-162-90-322.93-97.738-510.5-104.63-129.23-4.7617-218.95-47.027-218.95-47.027 30.422 152.43 82.391 476.18 298.39 638.18 225.42 169.05 510.19 95.09 545.11 85.117 9.8164 14.426 19.453 28.957 28.883 43.609 36.648 56.988 70.211 115.37 101.18 175.57 1.1406 2.1836 2.5938 4.6211 4.0312 6.707 18.758 27.023 55.859 33.73 82.883 14.965 27.016-18.758 33.723-55.871 14.977-82.895z"/>
</svg>
