<?xml version="1.0" encoding="UTF-8" standalone="no"?>
<!DOCTYPE svg PUBLIC "-//W3C//DTD SVG 1.1//EN" "http://www.w3.org/Graphics/SVG/1.1/DTD/svg11.dtd">
<svg class="icon" width="100%" height="100%" viewBox="0 0 926 926" version="1.1" xmlns="http://www.w3.org/2000/svg" xmlns:xlink="http://www.w3.org/1999/xlink" xml:space="preserve" xmlns:serif="http://www.serif.com/" style="fill-rule:evenodd;clip-rule:evenodd;stroke-linejoin:round;stroke-miterlimit:2;">
    <path d="M392.777,492.155L29.167,492.155C13.069,492.155 -0,479.085 0,462.988C0,446.89 13.069,433.821 29.167,433.821L433.951,433.821L434.064,29.159C434.069,13.061 447.141,-0.005 463.239,0C479.336,0.005 492.402,13.077 492.397,29.175L492.284,433.821L896.809,433.821C912.907,433.821 925.976,446.89 925.976,462.988C925.976,479.085 912.907,492.155 896.809,492.155L533.606,492.155L790.378,749.13C801.756,760.517 801.749,779 790.362,790.378C778.974,801.756 760.492,801.749 749.114,790.362L492.256,533.301L492.155,896.817C492.15,912.915 479.077,925.98 462.98,925.976C446.882,925.971 433.817,912.899 433.821,896.801L433.923,533.504L176.846,790.378C165.459,801.756 146.976,801.749 135.598,790.362C124.22,778.974 124.227,760.492 135.614,749.114L392.777,492.155Z"/>
</svg>
