<?xml version="1.0" encoding="UTF-8" standalone="no"?>
<!DOCTYPE svg PUBLIC "-//W3C//DTD SVG 1.1//EN" "http://www.w3.org/Graphics/SVG/1.1/DTD/svg11.dtd">
<svg class="icon" width="100%" height="100%" viewBox="0 0 672 926" version="1.1" xmlns="http://www.w3.org/2000/svg" xmlns:xlink="http://www.w3.org/1999/xlink" xml:space="preserve" xmlns:serif="http://www.serif.com/" style="fill-rule:evenodd;clip-rule:evenodd;stroke-linejoin:round;stroke-miterlimit:2;">
    <path d="M307.001,475.458L8.725,182.373C1.798,175.566 -1.287,165.758 0.497,156.212C2.28,146.665 8.699,138.633 17.617,134.787L29.566,129.633C29.867,129.501 30.169,129.37 30.472,129.242L324.187,2.57C327.843,0.919 331.899,0 336.168,0C336.171,-0 336.174,0 336.177,0C340.304,0.001 344.231,0.861 347.79,2.411L653.357,129.081C654.732,129.623 656.057,130.266 657.321,131.002C661.686,133.534 665.292,137.142 667.82,141.437C670.38,145.775 671.85,150.832 671.85,156.23C671.85,156.245 671.85,156.261 671.85,156.276C671.842,161.621 670.392,166.631 667.87,170.938C666.624,173.073 665.097,175.064 663.307,176.854L365.335,474.826L365.335,896.809C365.335,912.907 352.265,925.976 336.168,925.976C320.07,925.976 307.001,912.907 307.001,896.809L307.001,475.458ZM95.032,185.397L307.001,393.677L307.001,185.397L95.032,185.397ZM307.001,73.509L182.825,127.063L307.001,127.063L307.001,73.509ZM496.16,127.063L365.335,72.831L365.335,127.063L496.16,127.063ZM365.335,392.33L572.268,185.397L365.335,185.397L365.335,392.33Z"/>
</svg>
