<?xml version="1.0" encoding="UTF-8" standalone="no"?>
<!DOCTYPE svg PUBLIC "-//W3C//DTD SVG 1.1//EN" "http://www.w3.org/Graphics/SVG/1.1/DTD/svg11.dtd">
<svg class="icon" width="100%" height="100%" viewBox="0 0 906 929" version="1.1" xmlns="http://www.w3.org/2000/svg" xmlns:xlink="http://www.w3.org/1999/xlink" xml:space="preserve" xmlns:serif="http://www.serif.com/" style="fill-rule:evenodd;clip-rule:evenodd;stroke-linejoin:round;stroke-miterlimit:2;">
    <path d="M402.387,435.513L174.531,215.78C180.304,212.837 185.718,208.945 190.541,204.102C196.019,198.603 200.278,192.342 203.319,185.656L431.838,406.029L431.577,407.412L378.4,382.456L404.556,435.053L402.387,435.513ZM431.911,405.641L431.911,180.143L205.52,180.143C212.912,158.758 208.565,134.178 192.481,116.551L402.526,25.891C402.262,39.173 407.174,52.539 417.26,62.665C417.79,63.196 418.329,63.714 418.876,64.217L246.826,138.476L431.911,138.476L431.911,72.883C445.107,78.918 460.381,78.918 473.578,72.883L473.578,138.476L667.655,138.476L487.155,63.711C487.517,63.368 487.875,63.02 488.228,62.665C498.503,52.351 503.407,38.674 502.942,25.15L692.705,103.753C676.069,125.991 671.908,154.678 680.222,180.143L473.578,180.143L473.578,405.484L687.175,195.783C690.748,202.003 695.183,207.859 700.479,213.176C705.333,218.05 710.639,222.197 716.262,225.618L503.466,434.531L500.464,433.965L525.421,380.788L472.824,406.944L457.507,334.693L451.032,304.147L431.911,405.641ZM473.605,504.48L473.791,840.699C460.419,835.498 445.492,835.505 432.124,840.722L431.938,503.682L432.665,503.32L454.457,606.118L473.605,504.48ZM5.629,447.076C12.966,439.711 24.88,439.711 32.217,447.076C39.723,454.611 39.723,466.846 32.217,474.381C24.88,481.746 12.966,481.746 5.629,474.381C-1.876,466.846 -1.876,454.611 5.629,447.076ZM429.086,870.331C442.277,857.088 463.697,857.088 476.889,870.331C490.204,883.698 490.204,905.402 476.889,918.769C463.697,932.012 442.277,932.012 429.086,918.769C415.77,905.402 415.77,883.698 429.086,870.331ZM717.193,111.415C740.544,87.973 778.46,87.973 801.812,111.415C825.208,134.902 825.208,173.039 801.812,196.527C778.46,219.968 740.544,219.968 717.193,196.527C693.796,173.039 693.796,134.902 717.193,111.415ZM433.974,7.8C444.334,-2.6 461.155,-2.6 471.514,7.8C482.019,18.345 482.019,35.469 471.514,46.015C461.155,56.415 444.334,56.415 433.974,46.015C423.469,35.469 423.469,18.345 433.974,7.8ZM873.272,447.076C880.609,439.711 892.522,439.711 899.859,447.076C907.365,454.611 907.365,466.846 899.859,474.381C892.522,481.746 880.609,481.746 873.272,474.381C865.766,466.846 865.766,454.611 873.272,447.076ZM118.146,131.166C133.511,115.741 158.461,115.741 173.827,131.166C189.3,146.699 189.3,171.92 173.827,187.453C158.461,202.878 133.511,202.878 118.146,187.453C102.673,171.92 102.673,146.699 118.146,131.166ZM145.986,748.288C156.482,748.288 164.895,756.95 164.895,767.487C164.895,778.023 156.482,786.685 145.986,786.685C135.49,786.685 127.078,778.023 127.078,767.487C127.078,756.95 135.49,748.288 145.986,748.288ZM759.502,748.288C769.998,748.288 778.411,756.95 778.411,767.487C778.411,778.023 769.998,786.685 759.502,786.685C749.006,786.685 740.594,778.023 740.594,767.487C740.594,756.95 749.006,748.288 759.502,748.288ZM451.736,366.22L462.578,417.364C462.958,419.159 464.148,420.677 465.8,421.476C467.453,422.274 469.381,422.263 471.025,421.446L499.534,407.269L486.007,436.093C485.228,437.754 485.26,439.683 486.096,441.316C486.932,442.95 488.477,444.105 490.28,444.445L541.657,454.124L490.513,464.966C488.718,465.346 487.2,466.536 486.401,468.189C485.602,469.841 485.613,471.77 486.431,473.413L500.608,501.923L471.784,488.395C470.123,487.616 468.194,487.649 466.56,488.484C464.927,489.32 463.772,490.865 463.432,492.668L453.753,544.045L442.911,492.901C442.53,491.106 441.34,489.588 439.688,488.789C438.036,487.991 436.107,488.002 434.464,488.819L405.954,502.996L419.481,474.172C420.261,472.511 420.228,470.582 419.392,468.949C418.556,467.315 417.012,466.16 415.208,465.82L363.832,456.141L414.975,445.299C416.771,444.919 418.289,443.729 419.087,442.076C419.886,440.424 419.875,438.495 419.058,436.852L404.88,408.342L433.704,421.87C435.366,422.649 437.294,422.616 438.928,421.78C440.562,420.945 441.717,419.4 442.057,417.596L451.736,366.22Z"/>
</svg>
