<?xml version="1.0" encoding="UTF-8" standalone="no"?>
<!DOCTYPE svg PUBLIC "-//W3C//DTD SVG 1.1//EN" "http://www.w3.org/Graphics/SVG/1.1/DTD/svg11.dtd">
<svg class="icon" width="100%" height="100%" viewBox="0 0 844 846" version="1.1" xmlns="http://www.w3.org/2000/svg" xmlns:xlink="http://www.w3.org/1999/xlink" xml:space="preserve" xmlns:serif="http://www.serif.com/" style="fill-rule:evenodd;clip-rule:evenodd;stroke-linejoin:round;stroke-miterlimit:2;">
    <g transform="matrix(1,0,0,1,-26703.7,-478.612)">
        <g transform="matrix(4.16667,0,0,4.16667,-120573,-5794.21)">
            <g transform="matrix(1,0,0,1,-2133.17,-368.761)">
                <path d="M37479.6,1949.58C37482.7,1937.43 37488,1926.14 37495,1916.12L37509.6,1930.75L37539.3,1901.04L37525.5,1887.17C37534.8,1881.31 37545.2,1876.9 37556.2,1874.24L37581.6,1899.56L37606.6,1874.53C37618.1,1877.45 37628.8,1882.26 37638.4,1888.62L37626,1901.04L37655.7,1930.75L37668.1,1918.34C37674.4,1927.79 37679.1,1938.32 37682.1,1949.58L37655.7,1975.94L37682.1,2002.3C37679.1,2013.56 37674.4,2024.09 37668.1,2033.54L37655.7,2021.13L37626,2050.84L37638.4,2063.25C37629,2069.51 37618.4,2074.27 37607.2,2077.2L37580.8,2050.84L37554.5,2077.2C37544.1,2074.5 37534.3,2070.25 37525.5,2064.71L37539.3,2050.84L37509.6,2021.13L37495,2035.76C37488,2025.74 37482.7,2014.45 37479.6,2002.3L37505.9,1975.94L37479.6,1949.58ZM37581.6,1923.65L37529.3,1975.94L37581.6,2028.23L37633.8,1975.94L37581.6,1923.65Z" />
            </g>
        </g>
    </g>
</svg>
