<?xml version="1.0" encoding="UTF-8" standalone="no"?>
<!DOCTYPE svg PUBLIC "-//W3C//DTD SVG 1.1//EN" "http://www.w3.org/Graphics/SVG/1.1/DTD/svg11.dtd">
<svg class="icon" width="100%" height="100%" viewBox="0 0 844 1135" version="1.1" xmlns="http://www.w3.org/2000/svg" xmlns:xlink="http://www.w3.org/1999/xlink" xml:space="preserve" xmlns:serif="http://www.serif.com/" style="fill-rule:evenodd;clip-rule:evenodd;stroke-linejoin:round;stroke-miterlimit:2;">
    <g transform="matrix(1,0,0,1,-24810.1,-88878.6)">
        <g transform="matrix(4.16667,0,0,4.16667,-122467,82595.8)">
            <g transform="matrix(1,0,0,1,-2133.17,-332.257)">
                <path d="M37580.8,1840.13L37630.5,1889.88L37599,1921.43L37580.8,1903.3L37562.6,1921.49L37531,1889.88L37580.8,1840.13ZM37580.8,2112.36L37531,2062.56L37563.6,2030.03L37580.8,2047.31L37598.1,2030.03L37630.6,2062.56L37580.8,2112.36ZM37580.8,2027.51L37528.6,1975.3L37580.8,1923.1L37633,1975.3L37580.8,2027.51ZM37553.7,2020.13L37531.2,2042.64L37509.6,2021.13L37495,2035.76C37488,2025.74 37482.7,2014.45 37479.6,2002.3L37505.9,1975.94L37479.6,1949.58C37482.7,1937.43 37488,1926.14 37495,1916.12L37509.6,1930.75L37530.9,1909.52L37552.7,1931.39L37508.8,1975.3L37553.7,2020.13ZM37608.9,1931.33L37632.6,1907.63L37655.7,1930.75L37668.1,1918.34C37674.4,1927.79 37679.1,1938.32 37682.1,1949.58L37655.7,1975.94L37682.1,2002.3C37679.1,2013.56 37674.4,2024.09 37668.1,2033.54L37655.7,2021.13L37632.4,2044.47L37608,2020.13L37652.8,1975.3L37608.9,1931.33Z"/>
            </g>
        </g>
    </g>
</svg>
