<?xml version="1.0" encoding="UTF-8" standalone="no"?>
<!DOCTYPE svg PUBLIC "-//W3C//DTD SVG 1.1//EN" "http://www.w3.org/Graphics/SVG/1.1/DTD/svg11.dtd">
<svg class="icon" width="100%" height="100%" viewBox="0 0 889 1120" version="1.1" xmlns="http://www.w3.org/2000/svg" xmlns:xlink="http://www.w3.org/1999/xlink" xml:space="preserve" xmlns:serif="http://www.serif.com/" style="fill-rule:evenodd;clip-rule:evenodd;stroke-linejoin:round;stroke-miterlimit:2;">
    <g transform="matrix(1,0,0,1,-27201.1,-88755.8)">
        <g transform="matrix(4.16667,0,0,4.16667,-120053,82595.8)">
            <g transform="matrix(1,0,0,1,-2133.17,-330.157)">
                <path d="M37676.8,1934.26C37678.9,1939.18 37680.7,1944.3 37682.1,1949.58L37655.7,1975.94L37682.1,2002.3C37679.1,2013.56 37674.4,2024.09 37668.1,2033.54L37655.7,2021.13L37626,2050.84L37638.4,2063.25C37629,2069.51 37618.4,2074.27 37607.2,2077.2L37580.8,2050.84L37554.5,2077.2C37544.1,2074.5 37534.3,2070.25 37525.5,2064.71L37539.3,2050.84L37509.6,2021.13L37495,2035.76C37488,2025.74 37482.7,2014.45 37479.6,2002.3L37505.9,1975.94L37479.6,1949.58C37480.9,1944.3 37482.7,1939.17 37484.9,1934.25L37580.8,2030.22L37676.8,1934.26ZM37687.4,1899.95L37616.8,1970.49L37585.9,1939.59L37656.5,1869.05L37687.4,1899.95ZM37575.7,1939.6L37544.8,1970.5L37474.2,1899.96L37505.2,1869.06L37575.7,1939.6ZM37611.7,1975.62L37580.8,2006.5L37549.9,1975.62L37580.8,1944.75L37611.7,1975.62ZM37643.8,1871.51L37580.8,1934.47L37517.9,1871.51L37580.8,1808.54L37643.8,1871.51Z"/>
            </g>
        </g>
    </g>
</svg>
