<?xml version="1.0" encoding="UTF-8" standalone="no"?>
<!DOCTYPE svg PUBLIC "-//W3C//DTD SVG 1.1//EN" "http://www.w3.org/Graphics/SVG/1.1/DTD/svg11.dtd">
<svg class="icon" width="100%" height="100%" viewBox="0 0 889 1258" version="1.1" xmlns="http://www.w3.org/2000/svg" xmlns:xlink="http://www.w3.org/1999/xlink" xml:space="preserve" xmlns:serif="http://www.serif.com/" style="fill-rule:evenodd;clip-rule:evenodd;stroke-linejoin:round;stroke-miterlimit:2;">
    <g transform="matrix(1,0,0,1,-30802.2,-88755.8)">
        <g transform="matrix(4.16667,0,0,4.16667,-116452,82595.8)">
            <g transform="matrix(1,0,0,1,-2133.17,-330.157)">
                <path d="M37580.8,1921L37633,1973.2L37580.8,2025.41L37528.6,1973.2L37580.8,1921ZM37580.8,2110.26L37531,2060.46L37563.5,2027.93L37580.8,2045.21L37598.1,2027.93L37630.6,2060.46L37580.8,2110.26ZM37532.7,1958.46L37474.2,1899.96L37505.2,1869.06L37563.7,1927.55L37532.7,1958.46ZM37568.8,1922.43L37517.9,1871.51L37580.8,1808.54L37643.8,1871.51L37592.9,1922.43L37580.8,1910.39L37568.8,1922.43ZM37598,1927.55L37656.5,1869.05L37687.4,1899.95L37628.9,1958.45L37598,1927.55ZM37640.7,1970.31L37676.8,1934.26C37678.9,1939.18 37680.7,1944.3 37682.1,1949.58L37655.7,1975.94L37682.1,2002.3C37679.1,2013.56 37674.4,2024.09 37668.1,2033.54L37655.7,2021.13L37628.8,2048.03L37598.8,2018.03L37643.6,1973.2L37640.7,1970.31ZM37534.7,2046.18L37509.6,2021.13L37495,2035.76C37488,2025.74 37482.7,2014.45 37479.6,2002.3L37505.9,1975.94L37479.6,1949.58C37480.9,1944.3 37482.7,1939.17 37484.9,1934.25L37520.9,1970.3L37518,1973.2L37562.8,2018.03L37534.7,2046.18Z"/>
            </g>
        </g>
    </g>
</svg>
