<?xml version="1.0" encoding="UTF-8"?>
<svg class="icon" width="100pt" height="100pt" version="1.1" viewBox="0 0 100 100" xmlns="http://www.w3.org/2000/svg">
 <path d="m41.02 0c-1.0469-0.0039062-2.0156 0.55078-2.5469 1.4531l-29.824 50.402c-0.53125 0.91016-0.53906 2.0391-0.011719 2.9531 0.52734 0.91406 1.5 1.4805 2.5586 1.4766h22.289l-10.246 40.031c-0.33594 1.2852 0.23047 2.6367 1.3828 3.2969 1.1523 0.65625 2.6055 0.46484 3.543-0.47656l62.734-62.602c0.83984-0.84375 1.0859-2.1055 0.62891-3.2031-0.45312-1.0977-1.5234-1.8125-2.7109-1.8125h-28.5l16.754-27.027c0.5625-0.91016 0.58984-2.0547 0.066407-2.9883-0.52344-0.93359-1.5117-1.5117-2.582-1.5039z"/>
</svg>
