<svg class="icon" width="100" height="100" viewBox="0 0 100 100" fill="none" xmlns="http://www.w3.org/2000/svg">
<path fill-rule="evenodd" clip-rule="evenodd" d="M35.088 64.3592L31.7828 61.0016L24.5711 68.3278L27.8763 71.6854L35.088 64.3592ZM22.6577 69.0722L27.1435 73.6292C27.5513 74.0434 27.5513 74.7134 27.1435 75.1277C26.7357 75.542 26.0762 75.542 25.6683 75.1277L21.1826 70.5708C20.7748 70.1565 20.7748 69.4865 21.1826 69.0722C21.5878 68.6579 22.2499 68.6579 22.6577 69.0722ZM32.7043 53.0228L42.9397 63.4258C43.2015 63.6918 43.5891 63.7762 43.934 63.6432C44.3166 63.5205 44.7219 63.4949 45.1146 63.5639C45.5803 63.6867 46.0007 63.9424 46.3204 64.3055C46.7609 64.8067 46.9925 65.4588 46.9723 66.1289C46.9874 67.139 46.3959 68.057 45.4746 68.4432C44.5557 68.8293 43.496 68.6043 42.8063 67.878L28.3196 53.1615C27.6878 52.5196 27.4461 51.5837 27.6827 50.7066C27.9194 49.832 28.6016 49.1543 29.4675 48.9293C30.3334 48.7043 31.2497 48.9702 31.8715 49.6223C32.4908 50.277 32.7198 51.218 32.4681 52.09C32.3724 52.4199 32.4626 52.7773 32.7043 53.0228ZM67.9691 61.0017L64.6639 64.3593L71.8782 71.6855L75.1834 68.3279L67.9691 61.0017ZM72.6084 73.6292L77.0942 69.0723H77.0967C77.2931 68.8728 77.5574 68.7628 77.8343 68.7628C78.1112 68.7628 78.3755 68.8728 78.5718 69.0723C78.9796 69.4865 78.9771 70.1565 78.5718 70.5708L74.086 75.1278H74.0835C73.6782 75.542 73.0162 75.542 72.6109 75.1278C72.2031 74.7135 72.2031 74.0435 72.6109 73.6292H72.6084ZM44.7874 42.1497L36.3673 33.5987C36.0048 33.2279 36.0073 32.6269 36.3698 32.2587C36.7348 31.8879 37.3239 31.8879 37.6914 32.2561L46.0438 40.741L48.6215 37.8437L38.852 26.8633L29.6587 25.4389L31.0608 34.7781L42.2222 45.0299L44.7848 42.1505L44.7874 42.1497ZM52.9935 49.2003L68.6936 34.7777L70.0957 25.4385L60.9023 26.8629L36.5373 54.2351L38.4806 56.2092L62.0627 32.2556C62.4277 31.8823 63.0193 31.8823 63.3843 32.2531C63.7518 32.6264 63.7518 33.2274 63.3868 33.5982L39.8047 57.5544L41.7481 59.5286L52.9935 49.2003ZM61.2704 56.2096L55.0326 49.8754L57.3963 47.7043L63.2163 54.2355L61.2729 56.2096H61.2704ZM58.0055 59.5264L51.2642 53.3379L53.643 51.1515L59.9463 57.5547L58.0029 59.5289L58.0055 59.5264ZM53.4291 67.8758V67.8783C52.5631 66.8503 52.5631 65.3339 53.4291 64.3059C53.7513 63.9428 54.1717 63.687 54.6349 63.5643C55.0301 63.4953 55.4354 63.5208 55.818 63.6436C56.1628 63.7766 56.5505 63.6922 56.8098 63.4262L67.0503 53.0232C67.2895 52.7802 67.3801 52.4197 67.2844 52.0898C67.0327 51.2178 67.2593 50.2767 67.881 49.6246C68.5003 48.97 69.4191 48.7066 70.2851 48.9291C71.151 49.1541 71.8307 49.8318 72.0673 50.7089C72.3039 51.5835 72.0622 52.5194 71.4304 53.1613L56.9483 67.8778C56.4826 68.3509 55.8507 68.6169 55.1912 68.6169C54.5317 68.6169 53.8998 68.3509 53.4316 67.8778L53.4291 67.8758Z"/>
</svg>
