<?xml version="1.0" encoding="UTF-8" standalone="no"?>
<!DOCTYPE svg PUBLIC "-//W3C//DTD SVG 1.1//EN" "http://www.w3.org/Graphics/SVG/1.1/DTD/svg11.dtd">
<svg class="icon" width="100%" height="100%" viewBox="0 0 905 973" version="1.1" xmlns="http://www.w3.org/2000/svg" xmlns:xlink="http://www.w3.org/1999/xlink" xml:space="preserve" xmlns:serif="http://www.serif.com/" style="fill-rule:evenodd;clip-rule:evenodd;stroke-linejoin:round;stroke-miterlimit:2;">
    <path d="M418.865,99.495C418.382,99.39 417.885,99.338 417.381,99.341L369.605,99.617L413.594,80.973C415.54,80.148 416.995,78.469 417.535,76.425C418.075,74.381 417.639,72.202 416.353,70.524L398.569,47.298L426.936,54.444C428.986,54.96 431.159,54.499 432.823,53.195C434.486,51.891 435.453,49.89 435.441,47.776L435.164,-0L453.809,43.989C454.634,45.935 456.313,47.39 458.357,47.93C460.401,48.47 462.579,48.034 464.258,46.748L487.484,28.964L480.338,57.331C479.821,59.381 480.282,61.554 481.586,63.218C482.891,64.881 484.891,65.848 487.005,65.836L534.781,65.559L490.793,84.204C488.846,85.029 487.391,86.708 486.851,88.752C486.312,90.795 486.748,92.974 488.033,94.653L505.818,117.879L491.659,114.312L491.938,114.986L477.308,111.3C475.433,110.828 473.446,111.249 471.925,112.442C470.404,113.635 469.52,115.464 469.531,117.397L469.825,168.097L450.039,121.416C449.285,119.636 447.749,118.306 445.88,117.812C444.012,117.319 442.019,117.718 440.485,118.893L415.925,137.699L423.481,107.703C423.954,105.828 423.532,103.841 422.339,102.32C421.409,101.133 420.09,100.334 418.637,100.045L418.865,99.495ZM473.027,204.636L473.027,469.992C460.138,462.7 444.249,462.7 431.36,469.992L431.36,178.21L182.746,778.418C173.37,768.492 160.122,762.296 145.435,762.296C145.062,762.296 144.69,762.3 144.319,762.308L403.024,137.737L399.421,152.04C398.772,154.618 399.825,157.326 402.046,158.787C404.267,160.249 407.17,160.146 409.282,158.529L441.678,133.722L470.501,201.724C471.031,202.974 471.929,203.974 473.027,204.636ZM497.9,129.378L752.158,743.211C737.618,744.602 724.355,750.411 713.715,759.283L482.343,200.702C482.452,200.234 482.508,199.747 482.505,199.248L482.078,125.392L497.9,129.378ZM704.235,859.267L507.823,940.623C507.701,926.69 502.435,912.794 492.023,902.068L688.386,820.732C689.738,835.291 695.466,848.583 704.235,859.267ZM396.564,940.623L181.084,851.369C190.834,841.944 196.901,828.7 196.901,814.053C196.901,813.639 196.896,813.226 196.887,812.815L412.363,902.068C401.952,912.794 396.685,926.69 396.564,940.623ZM473.027,544.597L473.027,889.253C459.694,883.858 444.693,883.858 431.36,889.253L431.36,544.597C444.249,551.889 460.138,551.889 473.027,544.597ZM5.469,494.031C12.59,486.882 24.154,486.882 31.275,494.031C38.567,501.352 38.567,513.238 31.275,520.558C24.154,527.707 12.59,527.707 5.469,520.558C-1.823,513.238 -1.823,501.352 5.469,494.031ZM429.984,918.582C442.241,906.277 462.145,906.277 474.403,918.582C486.792,931.019 486.792,951.213 474.403,963.65C462.145,975.955 442.241,975.955 429.984,963.65C417.595,951.213 417.595,931.019 429.984,918.582ZM439.29,494.031C446.412,486.882 457.975,486.882 465.096,494.031C472.388,501.352 472.388,513.238 465.096,520.558C457.975,527.707 446.412,527.707 439.29,520.558C431.998,513.238 431.998,501.352 439.29,494.031ZM873.111,494.031C880.233,486.882 891.796,486.882 898.918,494.031C906.209,501.352 906.209,513.238 898.918,520.558C891.796,527.707 880.233,527.707 873.111,520.558C865.82,513.238 865.82,501.352 873.111,494.031ZM145.435,181.889C155.627,181.889 163.792,190.305 163.792,200.537C163.792,210.768 155.628,219.184 145.435,219.184C135.243,219.184 127.078,210.768 127.078,200.537C127.078,190.305 135.243,181.889 145.435,181.889ZM145.435,786.439C160.566,786.439 172.758,798.863 172.758,814.053C172.758,829.242 160.566,841.666 145.435,841.666C130.304,841.666 118.112,829.242 118.112,814.053C118.112,798.863 130.304,786.439 145.435,786.439ZM758.951,181.889C769.143,181.889 777.308,190.305 777.308,200.537C777.308,210.768 769.143,219.184 758.951,219.184C748.759,219.184 740.594,210.768 740.594,200.537C740.594,190.305 748.759,181.889 758.951,181.889ZM758.951,767.031C784.773,767.031 805.682,788.131 805.682,814.053C805.682,839.975 784.773,861.074 758.951,861.074C733.129,861.074 712.22,839.975 712.22,814.053C712.22,788.131 733.129,767.031 758.951,767.031Z"/>
</svg>
