<?xml version="1.0" encoding="UTF-8" standalone="no"?>
<!DOCTYPE svg PUBLIC "-//W3C//DTD SVG 1.1//EN" "http://www.w3.org/Graphics/SVG/1.1/DTD/svg11.dtd">
<svg class="icon" width="100%" height="100%" viewBox="0 0 672 926" version="1.1" xmlns="http://www.w3.org/2000/svg" xmlns:xlink="http://www.w3.org/1999/xlink" xml:space="preserve" xmlns:serif="http://www.serif.com/" style="fill-rule:evenodd;clip-rule:evenodd;stroke-linejoin:round;stroke-miterlimit:2;">
    <path d="M324.564,923.571L18.017,796.695L18.01,796.692C3.14,790.533 -3.933,773.463 2.222,758.592L2.225,758.584L308.983,18.005C313.497,7.106 324.132,0.001 335.929,0.001C336.01,-0 336.091,0 336.172,0C349.605,0 360.93,9.101 364.31,21.469L669.634,758.584C675.797,773.463 668.734,790.522 653.856,796.689L347.794,923.565C344.233,925.116 340.302,925.976 336.172,925.976C332.048,925.976 328.122,925.118 324.564,923.571ZM307.005,175.211L67.282,753.953L307.005,853.171L307.005,175.211ZM365.339,853.145L604.582,753.969L365.339,176.384L365.339,853.145Z"/>
</svg>
