<?xml version="1.0" encoding="UTF-8"?>
<svg class="icon" width="100pt" height="100pt" version="1.1" viewBox="0 0 100 100" xmlns="http://www.w3.org/2000/svg">
 <path d="m10.25 8.0078c-2.3008 0.14063-4.2852 2.125-4.25 4.25v75.523c-0.011719 1.5469 0.98828 3.0664 2.4844 3.7695s3.4141 0.55469 4.7656-0.36328l56.844-37.777c1.1094-0.72656 1.832-1.9336 1.9062-3.1875v35.496c0 2.7188 1.3047 3.5859 2.25 4.4375 0.47266 0.42578 0.97656 0.79297 1.5938 1.125s1.2344 0.71875 2.75 0.71875h8.8125c1.5156 0 2.1953-0.38672 2.8125-0.71875s1.0898-0.69922 1.5625-1.125c0.94531-0.84766 2.2188-1.7148 2.2188-4.4375v-71.398c0-3.6914-3.6992-6.3125-6.5938-6.3125h-8.8125c-3.7344 0-6.5938 3.7422-6.5938 6.3125v35.465c-0.011719-0.14844-0.03125-0.29297-0.0625-0.4375-0.1875-1.0938-0.86719-2.1055-1.8438-2.75l-56.844-37.777c-0.85547-0.58203-1.9375-0.875-3-0.8125z"/>
</svg>
