<?xml version="1.0" encoding="UTF-8"?>
<svg class="icon" width="100pt" height="100pt" version="1.1" viewBox="0 0 100 100" xmlns="http://www.w3.org/2000/svg">
 <g fill-rule="evenodd">
  <path d="m59.859 1.5352h26.684c2.0859 0 3.7773 2.0859 3.7773 3.7773v89.375c0 2.0859-1.6914 3.7773-3.7773 3.7773h-26.684c-2.0859 0-3.7773-2.0859-3.7773-3.7773v-89.375c0-2.0859 1.6914-3.7773 3.7773-3.7773z"/>
  <path d="m13.461 1.5352h26.684c2.0859 0 3.7773 2.0859 3.7773 3.7773v89.375c0 2.0859-1.6914 3.7773-3.7773 3.7773h-26.684c-2.0859 0-3.7773-2.0859-3.7773-3.7773v-89.375c0-2.0859 1.6914-3.7773 3.7773-3.7773z"/>
 </g>
</svg>
