<?xml version="1.0" encoding="UTF-8" standalone="no"?>
<!DOCTYPE svg PUBLIC "-//W3C//DTD SVG 1.1//EN" "http://www.w3.org/Graphics/SVG/1.1/DTD/svg11.dtd">
<svg class="icon" width="100%" height="100%" viewBox="0 0 1120 1258" version="1.1" xmlns="http://www.w3.org/2000/svg" xmlns:xlink="http://www.w3.org/1999/xlink" xml:space="preserve" xmlns:serif="http://www.serif.com/" style="fill-rule:evenodd;clip-rule:evenodd;stroke-linejoin:round;stroke-miterlimit:2;">
    <g transform="matrix(1,0,0,1,-33099.7,-88755.8)">
        <g transform="matrix(4.16667,0,0,4.16667,-114039,82595.8)">
            <g transform="matrix(1.24438,-1.24438,1.24438,1.24438,-13477,45790.4)">
                <path d="M37417.9,1898.57L37417.9,1940.53L37376,1940.53L37376,1898.57L37417.9,1898.57ZM37341.9,1974.62L37341.9,1934.6L37368,1934.6L37368,1948.48L37381.9,1948.48L37381.9,1974.62L37341.9,1974.62ZM37383.6,1894.31L37383.6,1847.3L37408.4,1847.3L37408.4,1894.31L37383.6,1894.31ZM37412.5,1894.31L37412.5,1853.39L37463.1,1853.39L37463.1,1903.99L37422.2,1903.99L37422.2,1894.31L37412.5,1894.31ZM37422.2,1908.1L37469.2,1908.1L37469.2,1932.93L37422.2,1932.93L37422.2,1908.1ZM37386.2,1968.9L37407.8,1968.9L37407.8,1992.78L37383.9,1992.78L37383.9,1978.88L37386.2,1978.88L37386.2,1968.9ZM37337.6,1934.08L37325.2,1934.08L37325.2,1910.21L37349.1,1910.21L37349.1,1930.34L37337.6,1930.34L37337.6,1934.08ZM37449.8,1950.74L37449.8,1974.62L37426,1974.62L37426,1950.74L37449.8,1950.74ZM37365.8,1866.68L37365.8,1890.56L37341.9,1890.56L37341.9,1866.68L37365.8,1866.68Z"/>
            </g>
        </g>
    </g>
</svg>
