<?xml version="1.0" encoding="UTF-8" standalone="no"?>
<!DOCTYPE svg PUBLIC "-//W3C//DTD SVG 1.1//EN" "http://www.w3.org/Graphics/SVG/1.1/DTD/svg11.dtd">
<svg class="icon" width="100%" height="100%" viewBox="0 0 1120 1135" version="1.1" xmlns="http://www.w3.org/2000/svg" xmlns:xlink="http://www.w3.org/1999/xlink" xml:space="preserve" xmlns:serif="http://www.serif.com/" style="fill-rule:evenodd;clip-rule:evenodd;stroke-linejoin:round;stroke-miterlimit:2;">
    <g transform="matrix(1,0,0,1,-24672.3,-86465.5)">
        <g transform="matrix(4.16667,0,0,4.16667,-122467,80182.7)">
            <g transform="matrix(1.24438,-1.24438,1.24438,1.24438,-13477,45788.3)">
                <path d="M37373.6,1942.89L37373.6,1897.92L37418.6,1897.92L37418.6,1942.89L37373.6,1942.89ZM37450.4,1866.07L37450.4,1906.05L37426.6,1906.05L37426.6,1889.96L37410.4,1889.96L37410.4,1866.07L37450.4,1866.07ZM37365.8,1950.85L37381.1,1950.85L37381.1,1975.48L37341.1,1975.48L37341.1,1935.45L37365.7,1935.45L37365.7,1950.74L37365.8,1950.74L37365.8,1950.85ZM37333.1,1934.08L37325.2,1934.08L37325.2,1910.21L37349.1,1910.21L37349.1,1927.5L37333.1,1927.5L37333.1,1934.08ZM37389,1968.9L37407.8,1968.9L37407.8,1992.78L37383.9,1992.78L37383.9,1983.43L37389,1983.43L37389,1968.9ZM37402.5,1873.89L37385.4,1873.89L37385.4,1850.02L37409.3,1850.02L37409.3,1858.12L37402.5,1858.12L37402.5,1873.89ZM37458.4,1908.71L37468,1908.71L37468,1932.59L37444.1,1932.59L37444.1,1914L37458.4,1914L37458.4,1908.71ZM37449.8,1950.74L37449.8,1974.62L37426,1974.62L37426,1950.74L37449.8,1950.74ZM37365.8,1866.68L37365.8,1890.56L37341.9,1890.56L37341.9,1866.68L37365.8,1866.68Z"/>
            </g>
        </g>
    </g>
</svg>
