<?xml version="1.0" encoding="UTF-8" standalone="no"?>
<!DOCTYPE svg PUBLIC "-//W3C//DTD SVG 1.1//EN" "http://www.w3.org/Graphics/SVG/1.1/DTD/svg11.dtd">
<svg class="icon" width="100%" height="100%" viewBox="0 0 1120 1126" version="1.1" xmlns="http://www.w3.org/2000/svg" xmlns:xlink="http://www.w3.org/1999/xlink" xml:space="preserve" xmlns:serif="http://www.serif.com/" style="fill-rule:evenodd;clip-rule:evenodd;stroke-linejoin:round;stroke-miterlimit:2;">
    <g transform="matrix(1,0,0,1,-23893.4,-336.519)">
        <g transform="matrix(4.16667,0,0,4.16667,-123245,-5794.21)">
            <g transform="matrix(1.24438,-1.24438,1.24438,1.24438,-13477,45751.7)">
                <path d="M37417.2,1899.94L37417.2,1941.96L37375.1,1941.96L37375.1,1899.94L37417.2,1899.94ZM37450.7,1866.38L37450.7,1890.26L37426.8,1890.26L37426.8,1866.38L37450.7,1866.38ZM37449.8,1950.74L37449.8,1974.62L37426,1974.62L37426,1950.74L37449.8,1950.74ZM37365.8,1866.68L37365.8,1890.56L37341.9,1890.56L37341.9,1866.68L37365.8,1866.68ZM37365.8,1950.74L37365.8,1974.62L37341.9,1974.62L37341.9,1950.74L37365.8,1950.74ZM37407.8,1968.9L37407.8,1992.78L37383.9,1992.78L37383.9,1968.9L37407.8,1968.9ZM37349.1,1910.21L37349.1,1934.08L37325.2,1934.08L37325.2,1910.21L37349.1,1910.21ZM37409.3,1850.02L37409.3,1873.89L37385.4,1873.89L37385.4,1850.02L37409.3,1850.02ZM37468,1908.71L37468,1932.59L37444.1,1932.59L37444.1,1908.71L37468,1908.71Z"/>
            </g>
        </g>
    </g>
</svg>
