<svg class="icon" width="100pt" height="100pt" version="1.1" viewBox="0 0 100 100" xmlns="http://www.w3.org/2000/svg">
 <path d="m93.188 6.8086c-4.375-4.375-11.938-4.7812-21.562-1.2188 2.5 1.2188 4.9062 2.6562 7.1875 4.3438 4.5938-0.96875 8.0938-0.5625 9.9375 1.3125 1.875 1.8438 2.2812 5.3438 1.3125 9.9062-0.625 2.9062-1.8125 6.25-3.5312 9.9062-4.7812 10.094-13.156 21.438-23.594 31.875s-21.781 18.812-31.875 23.594c-3.625 1.7188-6.9688 2.9062-9.875 3.5312-4.5938 0.96875-8.0938 0.5625-9.9375-1.3125-1.875-1.8438-2.2812-5.3438-1.3125-9.9062-1.6875-2.3125-3.125-4.75-4.3438-7.2812-3.5312 9.6562-3.125 17.25 1.2188 21.625 2.4375 2.4062 5.8125 3.625 10 3.625 3.375 0 7.25-0.8125 11.562-2.4062 1.7188-0.59375 3.5-1.3438 5.3438-2.2188 10.75-5.0625 22.688-13.875 33.625-24.844 10.938-10.938 19.781-22.875 24.844-33.625 0.875-1.8125 1.5938-3.5938 2.2188-5.2812 3.5312-9.6562 3.125-17.25-1.2188-21.625z"/>
 <path d="m75.004 68.398c1.6289 0.10937 2.9258 1.4297 2.9258 3.0859 0 1.7266-1.3984 3.125-3.125 3.125-1.6211 0-2.9102-1.25-3.0664-2.8281-8.4375 8.4609-17.5 15.711-26.258 21.09 12.492 1.3086 25.441-2.8047 35.012-12.379 9.5703-9.5703 13.688-22.523 12.379-35.016-4.6602 7.5781-10.773 15.422-17.867 22.922z"/>
 <path d="m12.527 71.273c2.5859 4.5547 5.9609 8.6016 9.9922 11.945 1.8164-0.57812 3.793-1.3555 5.8672-2.3359 9.5156-4.5078 20.215-12.453 30.133-22.367 9.9141-9.9141 17.855-20.613 22.367-30.133 0.99219-2.1094 1.7578-4.0664 2.3359-5.8711-3.75-4.5234-8.4492-8.2773-13.684-10.949-16.199-8.2344-36.496-5.6016-50.035 7.9375-13.43 13.43-16.117 33.5-8.1289 49.625 0.35938 0.73828 0.75781 1.4453 1.1523 2.1484zm59.934-39.047c1.7266 0 3.125 1.3984 3.125 3.125 0 1.7266-1.3984 3.125-3.125 3.125-1.7266 0-3.125-1.3984-3.125-3.125 0-1.7266 1.3984-3.125 3.125-3.125zm-23.438 16.406c1.7266 0 3.125 1.3984 3.125 3.125 0 1.7266-1.3984 3.125-3.125 3.125-1.7266 0-3.125-1.3984-3.125-3.125 0-1.7266 1.3984-3.125 3.125-3.125zm-6.4453-27.93c1.7266 0 3.125 1.3984 3.125 3.125s-1.3984 3.125-3.125 3.125-3.125-1.3984-3.125-3.125 1.3984-3.125 3.125-3.125zm-16.992 27.93c1.7266 0 3.125 1.3984 3.125 3.125 0 1.7266-1.3984 3.125-3.125 3.125-1.7266 0-3.125-1.3984-3.125-3.125 0-1.7266 1.3984-3.125 3.125-3.125z"/>
</svg>
