<?xml version="1.0" encoding="UTF-8"?>
<svg class="icon" width="100pt" height="100pt" version="1.1" viewBox="0 0 100 100" xmlns="http://www.w3.org/2000/svg">
 <path d="m56.812 43.844 18.188 12.344-18.188 12.469c-0.16016 0.09375-0.35156 0.11328-0.53125 0.0625-0.015625 0-0.03125 0.015625-0.03125 0.03125l-0.03125-24.875c0.16797-0.14844 0.41406-0.16016 0.59375-0.03125zm36.938-15.719v56.25c-0.015625 5.1719-4.2031 9.3594-9.375 9.375h-43.75c-5.1719-0.015625-9.3594-4.2031-9.375-9.375v-56.25c0.015625-5.1719 4.2031-9.3594 9.375-9.375h43.75c5.1719 0.015625 9.3594 4.2031 9.375 9.375zm-12.5 28.125c-0.019531-2.0312-1.0352-3.9219-2.7188-5.0625l-18.188-12.5c-2.0625-1.4375-4.7539-1.5938-6.9688-0.40625-2.0586 1.0469-3.3633 3.1562-3.375 5.4688v25c0.011719 2.3125 1.3164 4.4219 3.375 5.4688 2.2188 1.1719 4.9023 1.0156 6.9688-0.40625l18.188-12.5c1.6836-1.1406 2.6992-3.0312 2.7188-5.0625zm-56.25-28.125c0.003906-4.1406 1.6523-8.1133 4.582-11.043 2.9297-2.9297 6.9023-4.5781 11.043-4.582h30.695c-1.2031-3.6836-4.6172-6.1953-8.4922-6.25h-44.391c-5.0898 0.089844-9.1445 4.2852-9.0625 9.375v56.25c-0.082031 5.0898 3.9727 9.2852 9.0625 9.375h6.5625z"/>
</svg>
