<svg class="icon" width="100" height="100" viewBox="0 0 100 100" fill="none" xmlns="http://www.w3.org/2000/svg">
<path d="M52.2664 63.5961C52.2664 63.5961 52.3149 63.58 52.3407 63.58C52.6122 63.5057 52.9127 63.4315 53.2261 63.3573C53.3101 63.3314 53.4006 63.3153 53.4814 63.2927C53.8207 63.2088 54.1664 63.1345 54.5412 63.0538C54.6059 63.0377 54.6737 63.028 54.7383 63.0119C55.0776 62.9473 55.4234 62.8795 55.7821 62.815C55.8725 62.7988 55.9566 62.7827 56.047 62.7666C56.4606 62.702 56.8839 62.6342 57.3299 62.5761C57.4204 62.56 57.5206 62.5503 57.611 62.5438C58.0149 62.4954 58.4383 62.4438 58.868 62.4018C58.9326 62.4018 59.0102 62.3857 59.0748 62.376C59.5531 62.334 60.0442 62.3017 60.5483 62.2759C60.6646 62.2759 60.7809 62.2662 60.8973 62.2598C61.4175 62.234 61.9474 62.2178 62.4871 62.2178C66.4585 62.2178 69.8741 62.8537 72.2394 63.467C72.9503 63.6477 73.6385 63.1119 73.6385 62.376L73.6321 31.9982C73.6321 31.5108 73.3251 31.0815 72.863 30.933C70.9371 30.3132 67.3438 29.4385 62.4904 29.4385C57.6336 29.4385 54.0278 30.3068 52.1078 30.9265C51.6457 31.075 51.3387 31.514 51.3387 31.9918V63.8635C51.3387 63.8635 51.413 63.8377 51.4453 63.8313C51.7006 63.757 51.9656 63.6731 52.2564 63.5989L52.2664 63.5961Z"/>
<path d="M38.8495 62.2566C38.9659 62.2566 39.0822 62.2663 39.1985 62.2728C39.7026 62.2986 40.1905 62.3309 40.672 62.3728C40.7366 62.3728 40.8045 62.389 40.8626 62.389C41.3021 62.4309 41.7222 62.4794 42.1358 62.531C42.2263 62.5407 42.3168 62.5568 42.4073 62.5633C42.8532 62.6214 43.283 62.6859 43.6966 62.7602C43.7806 62.7763 43.8549 62.786 43.9357 62.8021C44.317 62.8667 44.6789 62.9345 45.0279 63.0087C45.0764 63.0184 45.1345 63.0345 45.1862 63.041C45.5676 63.1249 45.9295 63.2056 46.2784 63.2895C46.3528 63.3057 46.4206 63.3218 46.4949 63.338C46.8342 63.4219 47.1574 63.5026 47.4449 63.5865H47.4546C47.7616 63.6704 48.0427 63.7511 48.3077 63.8351C48.3335 63.8351 48.3658 63.8512 48.3917 63.8609L48.3852 31.9982C48.3852 31.5108 48.0782 31.0815 47.6162 30.933C45.6903 30.3132 42.1164 29.4449 37.2592 29.4449C32.402 29.4449 28.8057 30.3197 26.8866 30.933C26.4245 31.0814 26.1175 31.5204 26.1175 31.9982V62.3826C26.1175 63.1185 26.8025 63.6544 27.5167 63.4736C29.8756 62.8635 33.2912 62.2244 37.2689 62.2244C37.8053 62.2244 38.3353 62.2405 38.8588 62.2664L38.8495 62.2566Z"/>
<path d="M76.5953 65.9363C76.5953 66.4334 76.3465 66.8853 75.9425 67.1661C75.8262 67.2404 75.7034 67.2985 75.5774 67.3404C75.5354 67.3566 75.4934 67.3566 75.4449 67.3727C75.3544 67.3889 75.2704 67.405 75.1799 67.4147C75.1541 67.4147 75.1379 67.4244 75.1153 67.4244C75.0668 67.4244 75.0151 67.4147 74.9666 67.4082C74.9343 67.4082 74.902 67.4082 74.8762 67.3985C74.7695 67.3824 74.6597 67.3566 74.553 67.3082C74.5046 67.2823 69.3247 65.1842 62.4937 65.1842C55.6593 65.1842 50.4823 67.2824 50.4343 67.3082C50.4181 67.3082 50.402 67.3178 50.3858 67.3243C50.36 67.334 50.3373 67.3404 50.3018 67.3501C50.2372 67.3663 50.1693 67.3921 50.1047 67.3985C50.0788 67.3985 50.0562 67.3985 50.0401 67.4082H49.6846C49.6588 67.4082 49.6426 67.4082 49.62 67.3985C49.5554 67.3889 49.4972 67.3727 49.4293 67.3501C49.397 67.3404 49.3712 67.334 49.3388 67.3243C49.3227 67.3243 49.3065 67.3243 49.2904 67.3082C49.2419 67.2823 44.0878 65.1842 37.2533 65.1842C30.7938 65.1842 25.8301 67.0532 25.2585 67.2824C25.2262 67.2985 25.2003 67.3082 25.2003 67.3082C25.0937 67.3502 24.9838 67.3824 24.8772 67.3986C24.8449 67.3986 24.819 67.3986 24.7867 67.4083C24.7382 67.4083 24.6865 67.4244 24.6381 67.4244C24.6122 67.4244 24.5961 67.4147 24.5734 67.4147C24.4894 67.4147 24.3989 67.3986 24.3182 67.3728C24.2697 67.3631 24.2277 67.3566 24.176 67.3405C24.0596 67.2985 23.953 67.2501 23.8464 67.1823C23.8367 67.1823 23.8205 67.1823 23.8141 67.1662C23.4004 66.895 23.1516 66.4302 23.1516 65.9363V37.2955C23.1516 36.5273 22.3987 35.9818 21.6716 36.2303H21.6458C21.1837 36.3885 20.8767 36.8178 20.8767 37.2955V69.4904C20.8767 70.2328 21.5811 70.7719 22.292 70.5814C25.1227 69.8035 29.4883 68.9126 34.636 68.9126C41.7417 68.9126 47.358 70.6137 49.5005 71.3755C49.7396 71.4595 49.9981 71.4595 50.2372 71.3755C52.3893 70.6138 58.0119 68.9126 65.1175 68.9126C70.2618 68.9126 74.6306 69.8035 77.4614 70.5911C78.1723 70.788 78.8767 70.2425 78.8767 69.5001V37.3052C78.8767 36.8178 78.5633 36.3949 78.1076 36.24H78.0818C77.3547 35.9914 76.6018 36.5466 76.6018 37.3052V65.946L76.5953 65.9363Z"/>
</svg>
