<?xml version="1.0" encoding="UTF-8" standalone="no"?>
<!DOCTYPE svg PUBLIC "-//W3C//DTD SVG 1.1//EN" "http://www.w3.org/Graphics/SVG/1.1/DTD/svg11.dtd">
<svg class="icon" width="100%" height="100%" viewBox="0 0 672 799" version="1.1" xmlns="http://www.w3.org/2000/svg" xmlns:xlink="http://www.w3.org/1999/xlink" xml:space="preserve" xmlns:serif="http://www.serif.com/" style="fill-rule:evenodd;clip-rule:evenodd;stroke-linejoin:round;stroke-miterlimit:2;">
    <path d="M324.559,796.508L18.013,669.633C7.11,665.12 0,654.483 0,642.683L0,34.506C-0,22.756 7.051,12.153 17.887,7.609C28.723,3.065 41.227,5.467 49.609,13.702L335.744,294.858L622.059,8.544C630.4,0.202 642.945,-2.293 653.844,2.221C664.743,6.735 671.849,17.371 671.849,29.168L671.849,642.683C671.849,654.477 664.747,665.11 653.852,669.627L347.79,796.502C344.228,798.053 340.297,798.913 336.167,798.913C332.043,798.913 328.117,798.055 324.559,796.508ZM365.334,726.082L613.516,623.201L613.516,99.582L365.334,347.764L365.334,726.082ZM307.001,348.396L58.333,104.056L58.333,623.189L307.001,726.109L307.001,348.396Z"/>
</svg>
