<?xml version="1.0" encoding="UTF-8" standalone="no"?>
<!DOCTYPE svg PUBLIC "-//W3C//DTD SVG 1.1//EN" "http://www.w3.org/Graphics/SVG/1.1/DTD/svg11.dtd">
<svg class="icon" width="100%" height="100%" viewBox="0 0 901 906" version="1.1" xmlns="http://www.w3.org/2000/svg" xmlns:xlink="http://www.w3.org/1999/xlink" xml:space="preserve" xmlns:serif="http://www.serif.com/" style="fill-rule:evenodd;clip-rule:evenodd;stroke-linejoin:round;stroke-miterlimit:2;">
    <path d="M429.48,480.532C428.91,480.584 428.344,480.706 427.794,480.901L400.395,490.625L415.82,465.981C416.952,464.172 417.184,461.942 416.447,459.94C415.711,457.938 414.089,456.389 412.056,455.745L366.807,441.416L408.045,437.76L407.447,437.162L416.935,436.321C417.872,435.778 418.68,435.015 419.28,434.079C419.881,433.144 420.238,432.092 420.342,431.014L409.02,399.111L437.715,417.071C438.79,417.203 439.895,417.083 440.938,416.699C441.981,416.315 442.901,415.692 443.634,414.894L443.747,414.536L443.854,414.643C444.421,413.963 444.859,413.173 445.133,412.307L459.462,367.058L463.118,408.297L463.716,407.699L464.557,417.187C465.1,418.124 465.863,418.932 466.798,419.532C467.734,420.133 468.786,420.49 469.864,420.594L501.767,409.272L483.806,437.967C483.674,439.042 483.795,440.147 484.179,441.19C484.562,442.233 485.186,443.153 485.983,443.886L486.341,443.999L486.235,444.106C486.914,444.673 487.705,445.111 488.57,445.385L533.819,459.714L486.541,463.905C484.416,464.094 482.498,465.255 481.345,467.05C480.193,468.845 479.936,471.073 480.65,473.083L490.373,500.482L471.146,488.448L471.146,489.213L462.911,484.058C461.836,483.926 460.731,484.047 459.688,484.43C458.645,484.814 457.725,485.438 456.992,486.235L440.804,537.353L436.069,483.943C435.526,483.006 434.763,482.198 433.828,481.597C432.892,480.997 431.84,480.64 430.762,480.536L429.48,480.991L429.48,480.532ZM122.722,167.813C116.102,161.954 111.929,153.356 111.929,143.807C111.929,134.257 116.102,125.659 122.722,119.8L122.722,118.449C127.574,114.384 133.613,111.707 140.244,111.033L141.189,111.978C141.97,111.92 142.759,111.89 143.555,111.89C161.056,111.89 175.181,126.238 175.181,143.807C175.181,144.511 175.159,145.21 175.114,145.903L176.067,146.856C174.541,163.573 160.597,176.748 143.555,176.748C135.628,176.748 128.37,173.897 122.722,169.165L122.722,167.813ZM777.904,156.224L777.904,158.149C773.374,164.869 765.748,169.301 757.071,169.301C743.107,169.301 731.867,157.824 731.867,143.807C731.867,142.207 732.013,140.641 732.293,139.122L733.632,137.783C735.825,129.038 742.681,122.134 751.402,120.013L752.725,118.69C754.136,118.442 755.588,118.312 757.071,118.312C765.748,118.312 773.374,122.744 777.904,129.464L777.904,131.389C780.032,135.036 781.25,139.284 781.25,143.807C781.25,148.33 780.032,152.578 777.904,156.224ZM732.786,789.931L731.694,790.384C721.883,782.731 715.571,770.753 715.571,757.323C715.571,755.456 715.693,753.617 715.929,751.814L717.026,751.36C718.819,739.067 726.073,728.534 736.238,722.37L736.238,721.177C742.358,717.589 749.475,715.532 757.071,715.532C764.667,715.532 771.783,717.589 777.904,721.177L777.904,722.37C789.679,729.51 797.547,742.512 797.547,757.323C797.547,779.786 779.447,798.089 757.071,798.089C747.955,798.089 739.548,795.051 732.786,789.931ZM122.722,768.959C120.833,765.504 119.76,761.534 119.76,757.323C119.76,753.111 120.833,749.141 122.722,745.686L122.722,743.679C127.138,736.791 134.803,732.212 143.555,732.212C157.307,732.212 168.375,743.517 168.375,757.323C168.375,769.419 159.877,779.596 148.522,781.93L146.746,781.194C145.702,781.335 144.637,781.409 143.555,781.409C135.895,781.409 129.106,777.749 124.76,772.087L122.97,771.346C122.886,771.22 122.803,771.094 122.722,770.966L122.722,768.959ZM395.92,425.635L167.024,196.738C180.079,190.877 190.571,180.278 196.338,167.127L421.197,391.986L385.242,369.481L404.887,424.84L395.92,425.635ZM475.243,396.172L710.007,161.408C717.113,180.598 735.499,194.301 757.071,194.301C764.504,194.301 771.559,192.674 777.904,189.756L777.904,693.88C771.35,691.708 764.347,690.532 757.071,690.532C749.795,690.532 742.791,691.708 736.238,693.88L736.238,194.103L508.892,421.448L531.397,385.493L476.038,405.139L475.243,396.172ZM471.146,503.959L471.146,843.556C458.113,836.83 442.513,836.83 429.48,843.556L429.48,551.161L433.868,600.662L465.592,500.483L471.146,503.959ZM774.843,96.572L777.904,93.511L777.904,97.857C776.901,97.396 775.88,96.967 774.843,96.572ZM706.59,800.783L495.767,888.108C496.809,875.138 492.393,861.807 482.519,851.894C481.7,851.072 480.857,850.288 479.994,849.542L690.749,762.244C691.814,776.906 697.602,790.263 706.59,800.783ZM404.859,888.108L177.541,793.95C187.284,784.797 193.375,771.763 193.375,757.323C193.375,756.677 193.363,756.034 193.338,755.394L420.632,849.542C419.769,850.288 418.926,851.072 418.107,851.894C408.233,861.807 403.817,875.138 404.859,888.108ZM122.722,711.796L122.722,197.843C129.183,200.364 136.209,201.748 143.555,201.748C150.901,201.748 157.927,200.364 164.388,197.843L164.388,711.796C158.05,708.855 150.994,707.212 143.555,707.212C136.116,707.212 129.06,708.855 122.722,711.796ZM458.743,903.444L458.609,903.499C458.385,903.595 458.159,903.688 457.932,903.78L457.543,903.941C452.893,905.695 447.733,905.695 443.083,903.941L442.694,903.78C442.467,903.688 442.241,903.595 442.016,903.499L441.883,903.444C439.684,902.45 437.624,901.046 435.819,899.234C427.656,891.039 427.656,877.733 435.819,869.538C443.818,861.508 456.807,861.508 464.807,869.538C472.97,877.733 472.97,891.039 464.807,899.234C463.002,901.046 460.942,902.45 458.743,903.444ZM4.921,438.629C11.307,432.219 21.676,432.219 28.062,438.629C34.624,445.217 34.624,455.913 28.062,462.5C21.676,468.911 11.307,468.911 4.921,462.5C-1.64,455.913 -1.64,445.217 4.921,438.629ZM872.564,438.629C878.95,432.219 889.319,432.219 895.704,438.629C902.266,445.217 902.266,455.913 895.704,462.5C889.319,468.911 878.95,468.911 872.564,462.5C866.002,455.913 866.002,445.217 872.564,438.629ZM438.743,4.808C445.129,-1.603 455.497,-1.603 461.883,4.808C468.445,11.395 468.445,22.092 461.883,28.679C455.497,35.089 445.129,35.089 438.743,28.679C432.181,22.092 432.181,11.395 438.743,4.808Z"/>
</svg>
