<svg class="icon" width="100" height="100" viewBox="20 20 60 60" fill="none" xmlns="http://www.w3.org/2000/svg">
<path fill-rule="evenodd" clip-rule="evenodd" d="M23.0001 29.1322V78.7913C23.0001 80.0112 23.9907 80.9976 25.2126 81H61.665C62.887 80.9976 63.8776 80.0111 63.8776 78.7913V76.881H32.3324C30.1125 76.8762 28.3169 75.0837 28.3145 72.8678V26.9233H25.2126C23.9906 26.9233 23.0001 27.9124 23.0001 29.1322ZM30.1199 23.2087C30.1199 21.9888 31.1105 21.0024 32.3324 21H57.228L57.2328 34.1464C57.2328 34.3846 57.3292 34.6131 57.498 34.784C57.6667 34.9524 57.8956 35.0462 58.1367 35.0462H58.1512L71 34.8417L70.9976 72.8679C70.9952 74.0877 70.007 75.0765 68.785 75.0765H32.3326C31.1106 75.0765 30.1201 74.0877 30.1201 72.8679L30.1199 23.2087ZM37.3773 51.5777H64.8514C65.3503 51.5777 65.7552 51.9819 65.7552 52.4775C65.7552 52.9755 65.3503 53.3797 64.8514 53.3797H37.3773C36.8784 53.3797 36.4735 52.9755 36.4735 52.4775C36.4735 51.9819 36.8784 51.5777 37.3773 51.5777ZM37.3773 62.8689H64.8514C65.3406 62.8833 65.7311 63.2827 65.7311 63.7711C65.7311 64.2595 65.3407 64.6589 64.8514 64.6733H37.3773C36.8784 64.6733 36.4735 64.2691 36.4735 63.7711C36.4735 63.2731 36.8784 62.8689 37.3773 62.8689ZM36.4735 41.1888C36.4735 40.6908 36.8784 40.289 37.3773 40.289H55.3073C55.8062 40.289 56.2111 40.6908 56.2111 41.1888C56.2111 41.6869 55.8062 42.091 55.3073 42.091H37.3773C36.8784 42.091 36.4735 41.6868 36.4735 41.1888ZM37.3773 30.8C37.1338 30.8072 36.8976 30.7158 36.7241 30.5449C36.5481 30.3765 36.4493 30.1431 36.4493 29.9001C36.4493 29.6571 36.5481 29.4237 36.7241 29.2529C36.8976 29.0845 37.1338 28.9931 37.3773 28.9979H47.8592C48.3485 29.0123 48.739 29.4117 48.739 29.9001C48.739 30.3885 48.3485 30.7879 47.8592 30.8023L37.3773 30.8ZM59.0335 22.2755L69.8363 33.0592L59.0384 33.23L59.0335 22.2755Z"/>
</svg>
