<svg class="icon" width="100" height="100" viewBox="20 20 60 60" fill="none" xmlns="http://www.w3.org/2000/svg">
<path d="M49.5021 78C53.2412 78 56.911 77.2525 60.3796 75.8291C74.9268 69.7909 81.864 53.097 75.8113 38.6428C71.4614 27.9207 61.0594 21 49.5021 21C45.763 21 42.0932 21.7475 38.6246 23.1709C31.5556 26.0893 26.1169 31.5838 23.1929 38.5737C20.269 45.6295 20.269 53.3672 23.1929 60.3572C27.5428 71.0793 37.9448 78 49.5021 78ZM59.2245 71.7577C60.2443 70.5357 61.1286 69.1124 62.013 67.4822C62.9637 65.6506 63.848 63.6811 64.5278 61.6454H70.511C67.9935 65.9898 64.1192 69.587 59.2245 71.7577ZM72.4815 57.4385H65.7521C66.3629 54.7242 66.7028 52.01 66.7028 49.4307C66.7028 46.7854 66.4319 44.0711 65.8875 41.4921H72.4815C74.3165 46.8544 74.1811 52.4843 72.4815 57.4385ZM70.5083 37.2857H64.7988C64.0498 34.9796 63.0992 32.7398 62.0103 30.7703C61.3305 29.5484 60.5816 28.4643 59.8354 27.5126C64.2543 29.551 67.9936 32.9441 70.5083 37.2857ZM51.6108 26.3593C55.0791 27.5813 58.3401 31.7879 60.3134 37.2857H51.6108V26.3593ZM51.6108 41.5607H61.5378C62.1486 44.0708 62.4885 46.7851 62.4885 49.4993C62.4885 52.0784 62.0796 54.7926 61.3997 57.5071H51.6113L51.6108 41.5607ZM51.6108 61.7135H60.0395C57.9999 66.8717 54.9406 71.2135 51.6108 72.5706V61.7135ZM28.4961 61.7135H34.4793C35.1591 63.7492 36.0435 65.716 36.9942 67.5503C37.8785 69.1778 38.8292 70.6039 39.849 71.8258C35.0901 69.7212 31.1462 66.2592 28.4961 61.7135ZM47.3937 72.5706C44.0636 71.2135 41.0043 66.8717 38.965 61.7135H47.3937V72.5706ZM47.3937 57.4378H37.674C36.9942 54.7925 36.5852 52.0093 36.5852 49.43C36.5852 46.7158 36.9251 44.0015 37.4695 41.4915H47.3966L47.3937 57.4378ZM47.3937 26.3587V37.285H38.6938C40.6642 31.7875 43.928 27.5808 47.3937 26.3587ZM39.2356 27.5143C38.4867 28.4633 37.7405 29.55 37.0607 30.772C35.9055 32.7388 35.0211 34.9786 34.2722 37.2874H28.5626C30.9421 33.0092 34.6813 29.6159 39.2356 27.5143ZM26.5232 41.5601H33.1172C32.5728 44.1392 32.3019 46.8534 32.3019 49.4986C32.3019 52.0778 32.6418 54.792 33.2526 57.5064H26.5232C24.7572 52.282 24.7572 46.7158 26.5232 41.5601Z"/>
</svg>
