<?xml version="1.0" encoding="UTF-8" standalone="no"?>
<!DOCTYPE svg PUBLIC "-//W3C//DTD SVG 1.1//EN" "http://www.w3.org/Graphics/SVG/1.1/DTD/svg11.dtd">
<svg class="icon" width="100%" height="100%" viewBox="0 0 17735 17735" version="1.1" xmlns="http://www.w3.org/2000/svg" xmlns:xlink="http://www.w3.org/1999/xlink" xml:space="preserve" xmlns:serif="http://www.serif.com/" style="fill-rule:evenodd;clip-rule:evenodd;stroke-linejoin:round;stroke-miterlimit:2;">
    <g transform="matrix(1,0,0,1,0,-2985)">
        <g id="Artboard4" transform="matrix(1,0,0,1,40003,-0.828849)">
            <rect x="-40003" y="2985.83" width="17734.2" height="17734.2" style="fill:none;"/>
            <g transform="matrix(13.6681,0,0,13.6681,-221788,-216222)">
                <path d="M14360.5,16577.1C14382.6,16661.4 14379.6,16753.1 14346.4,16840.7C14261.3,17064.7 14010.4,17177.5 13786.5,17092.4C13562.5,17007.4 13449.7,16756.5 13534.8,16532.5C13619.8,16308.6 13870.7,16195.8 14094.6,16280.8C14155.8,16304.1 14208.7,16339.7 14251.5,16383.7C14192.4,16397.1 14124.1,16418.2 14050.2,16446.1C13994.7,16400.4 13923.7,16372.9 13846.3,16372.9C13669.2,16372.9 13525.4,16516.7 13525.4,16693.9C13525.4,16803 13580,16899.5 13663.3,16957.5C13669.6,16961.9 13676.1,16966.1 13682.8,16970C13730.7,16998.5 13786.6,17014.8 13846.3,17014.8C13952.1,17014.8 14046,16963.5 14104.5,16884.4C14121.5,16889.2 14139.4,16891.8 14158,16891.8C14267.2,16891.8 14355.9,16803.1 14355.9,16693.9C14355.9,16660.4 14347.5,16628.8 14332.8,16601.2C14342.5,16593 14351.7,16585 14360.5,16577.1ZM14251.5,16383.7C14366.7,16357.6 14447.1,16360.7 14466.8,16399.2C14486.1,16436.8 14444.4,16501.4 14360.5,16577.1C14358,16567.5 14355.2,16558 14352,16548.7C14397.9,16499.1 14418,16457.7 14404.5,16431.2C14390.4,16403.8 14342.4,16396.4 14271.8,16406.1C14265.3,16398.4 14258.5,16390.9 14251.5,16383.7ZM14271.8,16406.1C14307.4,16448.2 14334.6,16496.7 14352,16548.7C14342.5,16559 14331.9,16569.6 14320.2,16580.6C14284.4,16529.4 14225.1,16496 14158,16496C14139.4,16496 14121.5,16498.5 14104.5,16503.3C14093,16487.8 14080.2,16473.4 14066.2,16460.2C14145.2,16432.3 14215.6,16413.7 14271.8,16406.1ZM14066.2,16460.2L14050.2,16446.1C14055.7,16450.6 14061,16455.3 14066.2,16460.2ZM14104.5,16503.3C14143.9,16556.6 14167.2,16622.5 14167.2,16693.9C14167.2,16696 14167.2,16698 14167.2,16700.1C14115.6,16735.1 14057.5,16770.7 13994.6,16805.4C13972.8,16773.7 13960.1,16735.2 13960.1,16693.9C13960.1,16603.2 14021.2,16526.7 14104.5,16503.3ZM13994.6,16805.4C13997.8,16810.2 14001.2,16814.7 14004.8,16819.1C13981.6,16831.9 13957.7,16844.5 13933.4,16857C13846.5,16901.6 13761.6,16939.6 13682.8,16970L13663.3,16957.5C13744.3,16928.2 13833.8,16889.2 13925.7,16842C13949.2,16830 13972.2,16817.8 13994.6,16805.4ZM14004.8,16819.1C14062.4,16787.5 14116.5,16755.2 14165.9,16723.1C14160.5,16783.2 14138.4,16838.5 14104.5,16884.4C14064.8,16873.3 14030.2,16850.1 14004.8,16819.1ZM14165.9,16723.1C14166.6,16715.5 14167,16707.8 14167.2,16700.1C14228.3,16658.6 14280.3,16617.9 14320.2,16580.6C14324.8,16587.1 14329,16594 14332.8,16601.2C14286.5,16640.1 14230.1,16681.4 14165.9,16723.1ZM14254.4,16736.5C14270.1,16736.5 14282.8,16749.2 14282.8,16764.8C14282.8,16780.5 14270.1,16793.2 14254.4,16793.2C14238.8,16793.2 14226.1,16780.5 14226.1,16764.8C14226.1,16749.2 14238.8,16736.5 14254.4,16736.5Z"/>
            </g>
        </g>
    </g>
</svg>
