<svg class="icon" width="100" height="100" viewBox="20 20 60 60" fill="none" xmlns="http://www.w3.org/2000/svg">
<path fill-rule="evenodd" clip-rule="evenodd" d="M68.1275 32.7495C77.9017 42.5237 77.9013 58.3937 68.1273 68.1677C58.3533 77.9417 42.4833 77.9421 32.7092 68.1679C22.9352 58.3939 22.9352 42.5235 32.7092 32.7495C42.4831 22.9755 58.3536 22.9755 68.1275 32.7495ZM55.7231 27.7595C48.1389 25.997 39.8409 28.0688 33.9347 33.975C24.8371 43.0726 24.8372 57.8448 33.9347 66.9424C37.1262 70.1338 41.0156 72.2055 45.1137 73.158L63.4643 54.8074C64.6176 53.6541 65.2653 52.0897 65.2651 50.4585C65.2654 48.8277 64.6173 47.2634 63.4644 46.1105L63.4639 46.11C62.3105 44.9566 60.7466 44.309 59.1155 44.3089C57.4845 44.3089 55.9202 44.9568 54.767 46.1101L46.0697 54.8074C44.9164 55.9606 43.3522 56.6086 41.7212 56.6086C40.0902 56.6086 38.526 55.9606 37.3727 54.8074L37.3725 54.8072C36.2192 53.6539 35.5714 52.0897 35.5713 50.4587C35.5713 48.8277 36.2192 47.2635 37.3725 46.1102L55.7231 27.7595ZM75.458 21.586C77.5734 21.586 79.291 23.3035 79.291 25.419C79.2912 27.5347 77.5737 29.2523 75.458 29.2521C73.3425 29.2521 71.6249 27.5345 71.625 25.419C71.625 23.3035 73.3425 21.586 75.458 21.586ZM77.1875 23.6895C76.7447 23.2466 76.1331 22.9725 75.458 22.9725C74.1077 22.9726 73.0115 24.0688 73.0115 25.419C73.0115 26.0941 73.2855 26.7058 73.7284 27.1486L77.1875 23.6895Z" />
</svg>
